<svg width="448" height="320" viewBox="0 0 448 320" fill="none" xmlns="http://www.w3.org/2000/svg">
<g opacity="0.4">
<mask id="path-1-inside-1" fill="white">
<path fill-rule="evenodd" clip-rule="evenodd" d="M23.9554 153.545C22.0655 155.433 22.0655 158.495 23.9554 160.383L41.0623 177.476L23.9506 194.573C22.0608 196.462 22.0608 199.523 23.9506 201.411C25.8404 203.3 28.9044 203.3 30.7942 201.411L47.9059 184.314L65.0172 201.411C66.907 203.299 69.971 203.299 71.8608 201.411C73.7506 199.523 73.7506 196.461 71.8608 194.573L54.7496 177.476L71.856 160.384C73.7458 158.495 73.7458 155.434 71.856 153.546C69.9662 151.657 66.9022 151.657 65.0124 153.546L47.9059 170.638L30.799 153.545C28.9092 151.657 25.8452 151.657 23.9554 153.545Z"/>
</mask>
<path d="M23.9554 153.545L21.1258 150.718L23.9554 153.545ZM41.0623 177.476L43.8919 180.303L46.7215 177.476L43.8919 174.649L41.0623 177.476ZM23.9506 201.411L26.7802 198.584L23.9506 201.411ZM30.7942 201.411L27.9646 198.584L30.7942 201.411ZM47.9059 184.314L50.7355 181.487L47.9059 178.659L45.0763 181.487L47.9059 184.314ZM65.0172 201.411L62.1876 204.238L65.0172 201.411ZM54.7496 177.476L51.92 174.649L49.0904 177.476L51.92 180.303L54.7496 177.476ZM65.0124 153.546L62.1828 150.718L65.0124 153.546ZM47.9059 170.638L45.0763 173.465L47.9059 176.292L50.7355 173.465L47.9059 170.638ZM30.799 153.545L27.9694 156.372L30.799 153.545ZM26.785 157.556C26.4579 157.229 26.4579 156.699 26.785 156.372L21.1258 150.718C17.6732 154.168 17.6732 159.761 21.1258 163.21L26.785 157.556ZM43.8919 174.649L26.785 157.556L21.1258 163.21L38.2327 180.303L43.8919 174.649ZM26.7802 197.401L43.8919 180.303L38.2327 174.649L21.121 191.746L26.7802 197.401ZM26.7802 198.584C26.4531 198.257 26.4531 197.727 26.7802 197.401L21.121 191.746C17.6684 195.196 17.6684 200.789 21.121 204.239L26.7802 198.584ZM27.9646 198.584C27.6375 198.911 27.1073 198.911 26.7802 198.584L21.121 204.239C24.5736 207.688 30.1713 207.688 33.6238 204.239L27.9646 198.584ZM45.0763 181.487L27.9646 198.584L33.6238 204.239L50.7355 187.141L45.0763 181.487ZM67.8467 198.584L50.7355 181.487L45.0763 187.141L62.1876 204.238L67.8467 198.584ZM69.0312 198.584C68.7041 198.91 68.1738 198.91 67.8467 198.584L62.1876 204.238C65.6401 207.688 71.2378 207.688 74.6904 204.238L69.0312 198.584ZM69.0312 197.4C69.3583 197.727 69.3583 198.257 69.0312 198.584L74.6904 204.238C78.1429 200.788 78.1429 195.195 74.6904 191.746L69.0312 197.4ZM51.92 180.303L69.0312 197.4L74.6904 191.746L57.5792 174.649L51.92 180.303ZM69.0264 157.556L51.92 174.649L57.5792 180.303L74.6856 163.211L69.0264 157.556ZM69.0264 156.373C69.3535 156.7 69.3535 157.229 69.0264 157.556L74.6856 163.211C78.1382 159.761 78.1382 154.168 74.6856 150.718L69.0264 156.373ZM67.842 156.373C68.1691 156.046 68.6993 156.046 69.0264 156.373L74.6856 150.718C71.2331 147.269 65.6353 147.269 62.1828 150.718L67.842 156.373ZM50.7355 173.465L67.842 156.373L62.1828 150.718L45.0763 167.811L50.7355 173.465ZM27.9694 156.372L45.0763 173.465L50.7355 167.811L33.6286 150.718L27.9694 156.372ZM26.785 156.372C27.112 156.046 27.6423 156.046 27.9694 156.372L33.6286 150.718C30.176 147.268 24.5783 147.268 21.1258 150.718L26.785 156.372Z" fill="#FF6489" mask="url(#path-1-inside-1)"/>
</g>
<g opacity="0.6">
<mask id="path-3-inside-2" fill="white">
<path fill-rule="evenodd" clip-rule="evenodd" d="M92.6542 11.9654C91.7093 12.9095 91.7093 14.4402 92.6542 15.3843L101.208 23.931L92.6523 32.4796C91.7074 33.4237 91.7074 34.9544 92.6523 35.8985C93.5972 36.8427 95.1292 36.8427 96.0741 35.8985L104.63 27.35L113.185 35.8982C114.13 36.8424 115.662 36.8424 116.607 35.8983C117.552 34.9541 117.552 33.4234 116.607 32.4793L108.052 23.931L116.605 15.3846C117.55 14.4405 117.55 12.9098 116.605 11.9656C115.66 11.0215 114.128 11.0215 113.183 11.9656L104.63 20.512L96.076 11.9654C95.1311 11.0212 93.5991 11.0212 92.6542 11.9654Z"/>
</mask>
<path d="M92.6542 15.3843L91.2394 16.798L92.6542 15.3843ZM92.6542 11.9654L94.069 13.379L92.6542 11.9654ZM101.208 23.931L102.623 25.3446L104.038 23.931L102.623 22.5174L101.208 23.931ZM92.6523 32.4796L91.2375 31.0659L92.6523 32.4796ZM92.6523 35.8985L94.0671 34.4849L92.6523 35.8985ZM96.0741 35.8985L97.4889 37.3122L96.0741 35.8985ZM104.63 27.35L106.045 25.9364L104.63 24.5227L103.215 25.9364L104.63 27.35ZM108.052 23.931L106.637 22.5174L105.222 23.931L106.637 25.3446L108.052 23.931ZM104.63 20.512L103.215 21.9256L104.63 23.3393L106.045 21.9256L104.63 20.512ZM94.069 13.9707C93.9055 13.8073 93.9055 13.5424 94.069 13.379L91.2394 10.5517C89.5131 12.2766 89.5131 15.0731 91.2394 16.798L94.069 13.9707ZM102.623 22.5174L94.069 13.9707L91.2394 16.798L99.7931 25.3446L102.623 22.5174ZM94.0671 33.8932L102.623 25.3446L99.7931 22.5174L91.2375 31.0659L94.0671 33.8932ZM94.0671 34.4849C93.9036 34.3215 93.9036 34.0566 94.0671 33.8932L91.2375 31.0659C89.5112 32.7908 89.5112 35.5873 91.2375 37.3122L94.0671 34.4849ZM94.6593 34.4849C94.4958 34.6483 94.2306 34.6483 94.0671 34.4849L91.2375 37.3122C92.9638 39.037 95.7626 39.037 97.4889 37.3122L94.6593 34.4849ZM103.215 25.9364L94.6593 34.4849L97.4889 37.3122L106.045 28.7636L103.215 25.9364ZM114.6 34.4846L106.045 25.9364L103.215 28.7636L111.77 37.3119L114.6 34.4846ZM115.192 34.4846C115.029 34.648 114.763 34.648 114.6 34.4846L111.77 37.3119C113.497 39.0367 116.295 39.0367 118.022 37.3119L115.192 34.4846ZM115.192 33.8929C115.356 34.0563 115.356 34.3212 115.192 34.4846L118.022 37.3119C119.748 35.587 119.748 32.7905 118.022 31.0656L115.192 33.8929ZM106.637 25.3446L115.192 33.8929L118.022 31.0656L109.466 22.5174L106.637 25.3446ZM115.19 13.971L106.637 22.5174L109.466 25.3446L118.02 16.7983L115.19 13.971ZM115.19 13.3793C115.354 13.5427 115.354 13.8076 115.19 13.971L118.02 16.7983C119.746 15.0734 119.746 12.2769 118.02 10.552L115.19 13.3793ZM114.598 13.3793C114.762 13.2159 115.027 13.2159 115.19 13.3793L118.02 10.552C116.294 8.82716 113.495 8.82716 111.768 10.552L114.598 13.3793ZM106.045 21.9256L114.598 13.3793L111.768 10.552L103.215 19.0984L106.045 21.9256ZM94.6612 13.379L103.215 21.9256L106.045 19.0984L97.4908 10.5517L94.6612 13.379ZM94.069 13.379C94.2325 13.2156 94.4977 13.2156 94.6612 13.379L97.4908 10.5517C95.7645 8.82687 92.9657 8.82687 91.2394 10.5517L94.069 13.379Z" fill="#FF6489" mask="url(#path-3-inside-2)"/>
</g>
<g opacity="0.8">
<mask id="path-5-inside-3" fill="white">
<path fill-rule="evenodd" clip-rule="evenodd" d="M412.072 62.1953C411.127 63.1395 411.127 64.6702 412.072 65.6143L420.626 74.1609L412.07 82.7095C411.125 83.6536 411.125 85.1843 412.07 86.1285C413.015 87.0726 414.547 87.0726 415.492 86.1285L424.048 77.5799L432.603 86.1282C433.548 87.0724 435.08 87.0724 436.025 86.1282C436.97 85.1841 436.97 83.6534 436.025 82.7092L427.469 74.1609L436.023 65.6145C436.968 64.6704 436.968 63.1397 436.023 62.1956C435.078 61.2514 433.546 61.2514 432.601 62.1956L424.048 70.742L415.494 62.1953C414.549 61.2512 413.017 61.2512 412.072 62.1953Z"/>
</mask>
<path d="M412.072 62.1953L413.487 63.609L412.072 62.1953ZM420.626 74.1609L422.041 75.5746L423.455 74.1609L422.041 72.7473L420.626 74.1609ZM412.07 86.1285L413.485 84.7148L412.07 86.1285ZM424.048 77.5799L425.462 76.1663L424.048 74.7527L422.633 76.1663L424.048 77.5799ZM432.603 86.1282L431.188 87.5419L432.603 86.1282ZM427.469 74.1609L426.055 72.7473L424.64 74.1609L426.055 75.5746L427.469 74.1609ZM424.048 70.742L422.633 72.1556L424.048 73.5692L425.462 72.1556L424.048 70.742ZM413.487 64.2007C413.323 64.0373 413.323 63.7724 413.487 63.609L410.657 60.7817C408.931 62.5066 408.931 65.3031 410.657 67.0279L413.487 64.2007ZM422.041 72.7473L413.487 64.2007L410.657 67.0279L419.211 75.5746L422.041 72.7473ZM413.485 84.1231L422.041 75.5746L419.211 72.7473L410.655 81.2958L413.485 84.1231ZM413.485 84.7148C413.322 84.5514 413.322 84.2865 413.485 84.1231L410.655 81.2958C408.929 83.0207 408.929 85.8172 410.655 87.5421L413.485 84.7148ZM414.077 84.7148C413.914 84.8782 413.649 84.8782 413.485 84.7148L410.655 87.5421C412.382 89.2669 415.181 89.2669 416.907 87.5421L414.077 84.7148ZM422.633 76.1663L414.077 84.7148L416.907 87.5421L425.462 78.9936L422.633 76.1663ZM434.018 84.7146L425.462 76.1663L422.633 78.9936L431.188 87.5419L434.018 84.7146ZM434.61 84.7146C434.447 84.878 434.181 84.878 434.018 84.7146L431.188 87.5419C432.915 89.2667 435.713 89.2667 437.44 87.5419L434.61 84.7146ZM434.61 84.1229C434.774 84.2863 434.774 84.5512 434.61 84.7146L437.44 87.5419C439.166 85.817 439.166 83.0205 437.44 81.2956L434.61 84.1229ZM426.055 75.5746L434.61 84.1229L437.44 81.2956L428.884 72.7473L426.055 75.5746ZM434.608 64.2009L426.055 72.7473L428.884 75.5746L437.438 67.0282L434.608 64.2009ZM434.608 63.6092C434.772 63.7726 434.772 64.0375 434.608 64.2009L437.438 67.0282C439.164 65.3033 439.164 62.5068 437.438 60.7819L434.608 63.6092ZM434.016 63.6092C434.179 63.4458 434.445 63.4458 434.608 63.6092L437.438 60.7819C435.711 59.0571 432.913 59.0571 431.186 60.7819L434.016 63.6092ZM425.462 72.1556L434.016 63.6092L431.186 60.7819L422.633 69.3283L425.462 72.1556ZM414.079 63.609L422.633 72.1556L425.462 69.3283L416.909 60.7817L414.079 63.609ZM413.487 63.609C413.65 63.4456 413.916 63.4456 414.079 63.609L416.909 60.7817C415.182 59.0569 412.384 59.0569 410.657 60.7817L413.487 63.609Z" fill="#FF6489" mask="url(#path-5-inside-3)"/>
</g>
<g clip-path="url(#clip0)">
<path opacity="0.5" d="M141.164 85.3137C141.164 77.978 135.193 72.0119 127.851 72.0119C120.509 72.0119 114.536 77.978 114.536 85.3137C114.536 92.6493 120.509 98.6175 127.849 98.6175C135.191 98.6175 141.164 92.6493 141.164 85.3137ZM127.851 90.6848C124.886 90.6848 122.475 88.274 122.475 85.3137C122.475 82.3533 124.886 79.9446 127.849 79.9446C130.814 79.9446 133.224 82.3533 133.224 85.3137C133.224 88.274 130.814 90.6848 127.851 90.6848Z" fill="#417AC9"/>
<path opacity="0.5" d="M159.481 98.6175C166.822 98.6175 172.796 92.6493 172.796 85.3137C172.796 77.978 166.822 72.0119 159.481 72.0119C152.141 72.0119 146.168 77.978 146.168 85.3137C146.168 92.6493 152.139 98.6175 159.481 98.6175ZM159.481 79.9446C162.446 79.9446 164.856 82.3533 164.856 85.3137C164.856 88.274 162.446 90.6848 159.481 90.6848C156.518 90.6848 154.107 88.274 154.107 85.3137C154.107 82.3533 156.518 79.9446 159.481 79.9446Z" fill="#417AC9"/>
<path opacity="0.5" d="M191.112 98.6175C198.451 98.6175 204.424 92.6493 204.424 85.3137C204.424 77.978 198.451 72.0119 191.112 72.0119C183.77 72.0119 177.797 77.978 177.797 85.3137C177.797 92.6493 183.77 98.6175 191.112 98.6175ZM191.112 79.9446C194.074 79.9446 196.485 82.3533 196.485 85.3137C196.485 88.274 194.074 90.6848 191.112 90.6848C188.147 90.6848 185.736 88.274 185.736 85.3137C185.736 82.3533 188.147 79.9446 191.112 79.9446Z" fill="#417AC9"/>
<path opacity="0.5" d="M235.038 89.28H331.721C333.913 89.28 335.691 87.5055 335.691 85.3137C335.691 83.1239 333.913 81.3473 331.721 81.3473H235.038C232.844 81.3473 231.068 83.1239 231.068 85.3137C231.068 87.5055 232.844 89.28 235.038 89.28V89.28Z" fill="#417AC9"/>
<path opacity="0.5" d="M363.077 71.5285C363.055 71.3922 363.03 71.2579 363.003 71.1215C362.991 71.0554 362.978 70.9873 362.964 70.9191C361.415 63.381 354.723 57.6917 346.725 57.6917H108.882C99.7435 57.6917 92.3066 65.1204 92.3066 74.2533V294.915C92.3066 304.048 99.7435 311.476 108.882 311.476H346.725C355.864 311.476 363.301 304.046 363.301 294.915V74.2533C363.301 73.3258 363.224 72.4168 363.077 71.5285V71.5285ZM346.725 303.544H108.882C104.12 303.544 100.246 299.672 100.246 294.915V112.938H122.375C124.568 112.938 126.344 111.161 126.344 108.971C126.344 106.779 124.568 105.005 122.375 105.005H100.246V74.2533C100.246 69.4957 104.12 65.6244 108.882 65.6244H346.725C350.594 65.6244 353.877 68.1798 354.973 71.6896C354.983 71.7248 354.993 71.7578 355.004 71.7909C355.035 71.8942 355.062 71.9954 355.088 72.0987C355.099 72.1338 355.107 72.1689 355.115 72.204C355.14 72.3073 355.165 72.4127 355.186 72.516C355.229 72.7267 355.264 72.9415 355.291 73.1564C355.301 73.2287 355.31 73.301 355.316 73.3733C355.347 73.6625 355.361 73.9558 355.361 74.2533V105.005H137.195C135.003 105.005 133.225 106.779 133.225 108.971C133.225 111.161 135.003 112.938 137.195 112.938H355.361V294.915C355.361 299.672 351.487 303.544 346.725 303.544V303.544Z" fill="#417AC9"/>
<path d="M153.411 198.787C155.842 201.217 159.781 201.214 162.212 198.787L174.409 186.598L186.608 198.787C189.04 201.217 192.979 201.214 195.41 198.787C197.842 196.358 197.842 192.419 195.41 189.99L183.214 177.803L195.41 165.617C197.842 163.188 197.842 159.249 195.41 156.819C192.979 154.393 189.036 154.393 186.608 156.819L174.409 169.009L162.212 156.819C159.781 154.393 155.839 154.393 153.411 156.819C150.979 159.249 150.979 163.188 153.411 165.617L165.607 177.803L153.411 189.99C150.979 192.419 150.979 196.358 153.411 198.787V198.787Z" fill="#FF6489"/>
<path d="M260.199 198.787C262.63 201.217 266.569 201.214 269.001 198.787L281.197 186.598L293.396 198.787C295.828 201.217 299.767 201.214 302.198 198.787C304.63 196.358 304.63 192.419 302.198 189.99L290.002 177.803L302.198 165.617C304.63 163.188 304.63 159.249 302.198 156.819C299.767 154.393 295.825 154.393 293.396 156.819L281.197 169.009L269.001 156.819C266.569 154.393 262.627 154.393 260.199 156.819C257.767 159.249 257.767 163.188 260.199 165.617L272.395 177.803L260.199 189.99C257.767 192.419 257.767 196.358 260.199 198.787V198.787Z" fill="#FF6489"/>
<path d="M170.956 249.809H284.652C288.088 249.809 290.876 247.027 290.876 243.59C290.876 240.156 288.088 237.371 284.652 237.371H170.956C167.52 237.371 164.731 240.156 164.731 243.59C164.731 247.027 167.52 249.809 170.956 249.809V249.809Z" fill="#FF6489"/>
</g>
<g opacity="0.4" clip-path="url(#clip1)">
<path d="M52.7706 89.8457H51.1761C49.8865 89.8457 48.8373 88.7974 48.8373 87.5088V86.9699C48.289 86.7948 47.7564 86.5739 47.2446 86.3093L46.8623 86.6913C45.9365 87.6175 44.4534 87.5903 43.5544 86.6909L42.4275 85.565C41.5269 84.6662 41.501 83.1848 42.4278 82.2598L42.8097 81.8781C42.5449 81.3668 42.3239 80.8347 42.1486 80.2868H41.6093C40.3197 80.2868 39.2705 79.2384 39.2705 77.9499V76.3567C39.2705 75.0682 40.3197 74.0199 41.6093 74.0199H42.1487C42.3239 73.4721 42.545 72.9399 42.8098 72.4286L42.4275 72.0467C41.5013 71.1222 41.5269 69.6407 42.4278 68.7414L43.5548 67.6154C44.4559 66.7138 45.9387 66.6913 46.8627 67.6157L47.2447 67.9973C47.7564 67.7327 48.2891 67.5118 48.8373 67.3368V66.7978C48.8373 65.5093 49.8865 64.461 51.1761 64.461H52.7706C54.0602 64.461 55.1094 65.5093 55.1094 66.7978V67.3368C55.6576 67.5118 56.1903 67.7327 56.702 67.9974L57.0843 67.6154C58.0102 66.6891 59.4933 66.7163 60.3923 67.6157L61.5192 68.7417C62.4198 69.6405 62.4457 71.1219 61.5189 72.0469L61.1369 72.4286C61.4017 72.9399 61.6228 73.472 61.798 74.0199H62.3374C63.627 74.0199 64.6762 75.0682 64.6762 76.3567V77.9499C64.6762 79.2384 63.627 80.2868 62.3374 80.2868H61.798C61.6228 80.8346 61.4017 81.3668 61.1369 81.8781L61.5192 82.2601C62.4454 83.1845 62.4199 84.6661 61.5189 85.5653L60.3919 86.6913C59.4908 87.5929 58.008 87.6154 57.084 86.691L56.702 86.3094C56.1903 86.574 55.6576 86.7949 55.1094 86.97V87.5089C55.1094 88.7974 54.0602 89.8457 52.7706 89.8457V89.8457ZM47.4935 84.7474C48.2044 85.1675 48.9695 85.4849 49.7676 85.6907C50.0963 85.7754 50.326 86.0716 50.326 86.4108V87.5088C50.326 87.9772 50.7074 88.3583 51.1761 88.3583H52.7706C53.2394 88.3583 53.6208 87.9772 53.6208 87.5088V86.4108C53.6208 86.0716 53.8504 85.7754 54.1791 85.6907C54.9772 85.4849 55.7424 85.1675 56.4533 84.7474C56.7458 84.5746 57.1182 84.6216 57.3585 84.8617L58.137 85.6395C58.4726 85.9753 59.0116 85.9675 59.339 85.6399L60.4667 84.5132C60.7933 84.1872 60.8042 83.6486 60.467 83.3121L59.6882 82.5339C59.4479 82.2939 59.4009 81.9217 59.5738 81.6295C59.9943 80.9192 60.3118 80.1547 60.5178 79.3572C60.6027 79.0288 60.8991 78.7994 61.2385 78.7994H62.3374C62.8062 78.7994 63.1876 78.4184 63.1876 77.95V76.3568C63.1876 75.8884 62.8062 75.5073 62.3374 75.5073H61.2385C60.899 75.5073 60.6027 75.2779 60.5178 74.9495C60.3118 74.152 59.9942 73.3875 59.5738 72.6773C59.4009 72.385 59.4479 72.0129 59.6882 71.7728L60.4667 70.995C60.8032 70.6591 60.7944 70.1207 60.467 69.7939L59.3394 68.6672C59.0125 68.3402 58.4734 68.3306 58.1373 68.6669L57.3586 69.4451C57.1183 69.6852 56.7458 69.7322 56.4533 69.5594C55.7424 69.1393 54.9773 68.8219 54.1792 68.6161C53.8505 68.5314 53.6209 68.2352 53.6209 67.896V66.7978C53.6209 66.3294 53.2394 65.9484 52.7707 65.9484H51.1762C50.7074 65.9484 50.326 66.3294 50.326 66.7978V67.8959C50.326 68.2351 50.0964 68.5313 49.7677 68.616C48.9696 68.8218 48.2044 69.1392 47.4935 69.5593C47.201 69.732 46.8286 69.685 46.5883 69.445L45.8098 68.6671C45.4742 68.3314 44.9352 68.3392 44.6078 68.6668L43.4801 69.7935C43.1535 70.1194 43.1426 70.658 43.4798 70.9946L44.2586 71.7727C44.4989 72.0128 44.5459 72.3849 44.373 72.6772C43.9525 73.3874 43.635 74.1519 43.429 74.9494C43.3442 75.2778 43.0477 75.5072 42.7083 75.5072H41.6093C41.1406 75.5073 40.7591 75.8884 40.7591 76.3567V77.9499C40.7591 78.4183 41.1406 78.7994 41.6093 78.7994H42.7083C43.0477 78.7994 43.3441 79.0288 43.429 79.3572C43.6349 80.1547 43.9525 80.9192 44.3729 81.6295C44.5459 81.9217 44.4988 82.2938 44.2586 82.5339L43.4801 83.3117C43.1435 83.6476 43.1523 84.186 43.4798 84.5128L44.6074 85.6395C44.9342 85.9665 45.4733 85.9761 45.8094 85.6398L46.5882 84.8616C46.7652 84.6848 47.1336 84.5347 47.4935 84.7474V84.7474Z" fill="#417AC9"/>
<path d="M51.974 82.6765C48.926 82.6765 46.4463 80.1988 46.4463 77.1533C46.4463 74.1079 48.926 71.6302 51.974 71.6302C55.022 71.6302 57.5017 74.1079 57.5017 77.1533C57.5017 80.1988 55.022 82.6765 51.974 82.6765V82.6765ZM51.974 73.1176C49.7468 73.1176 47.9349 74.928 47.9349 77.1533C47.9349 79.3787 49.7468 81.1891 51.974 81.1891C54.2012 81.1891 56.0131 79.3787 56.0131 77.1533C56.0131 74.928 54.2012 73.1176 51.974 73.1176V73.1176Z" fill="#417AC9"/>
</g>
<g opacity="0.3" clip-path="url(#clip2)">
<path d="M403.932 149.923H401.806C400.086 149.923 398.687 148.525 398.687 146.807V146.088C397.956 145.855 397.246 145.56 396.564 145.208L396.054 145.717C394.82 146.952 392.842 146.916 391.643 145.716L390.141 144.215C388.94 143.017 388.906 141.042 390.141 139.808L390.651 139.299C390.298 138.618 390.003 137.908 389.769 137.178H389.05C387.331 137.178 385.932 135.78 385.932 134.062V131.938C385.932 130.22 387.331 128.822 389.05 128.822H389.769C390.003 128.091 390.298 127.382 390.651 126.7L390.141 126.191C388.906 124.958 388.94 122.983 390.141 121.784L391.644 120.282C392.845 119.08 394.823 119.05 396.055 120.283L396.564 120.792C397.246 120.439 397.956 120.144 398.687 119.911V119.192C398.687 117.474 400.086 116.077 401.806 116.077H403.932C405.651 116.077 407.05 117.474 407.05 119.192V119.911C407.781 120.144 408.491 120.439 409.174 120.792L409.683 120.282C410.918 119.047 412.895 119.084 414.094 120.283L415.597 121.784C416.797 122.983 416.832 124.958 415.596 126.191L415.087 126.7C415.44 127.382 415.735 128.091 415.968 128.822H416.687C418.407 128.822 419.806 130.22 419.806 131.938V134.062C419.806 135.78 418.407 137.178 416.687 137.178H415.968C415.735 137.908 415.44 138.618 415.087 139.299L415.597 139.809C416.832 141.041 416.797 143.017 415.596 144.216L414.093 145.717C412.892 146.919 410.915 146.949 409.683 145.717L409.174 145.208C408.491 145.561 407.781 145.855 407.05 146.088V146.807C407.05 148.525 405.651 149.923 403.932 149.923V149.923ZM396.896 143.125C397.843 143.685 398.864 144.108 399.928 144.383C400.366 144.496 400.672 144.891 400.672 145.343V146.807C400.672 147.432 401.181 147.94 401.806 147.94H403.932C404.557 147.94 405.065 147.432 405.065 146.807V145.343C405.065 144.891 405.372 144.496 405.81 144.383C406.874 144.108 407.894 143.685 408.842 143.125C409.232 142.895 409.729 142.957 410.049 143.277L411.087 144.315C411.534 144.762 412.253 144.752 412.69 144.315L414.193 142.813C414.629 142.378 414.643 141.66 414.194 141.211L413.155 140.174C412.835 139.854 412.772 139.358 413.003 138.968C413.563 138.021 413.987 137.002 414.261 135.938C414.375 135.5 414.77 135.194 415.222 135.194H416.688C417.313 135.194 417.821 134.686 417.821 134.062V131.938C417.821 131.313 417.313 130.805 416.688 130.805H415.222C414.77 130.805 414.375 130.499 414.261 130.061C413.987 128.998 413.563 127.979 413.003 127.032C412.772 126.642 412.835 126.146 413.155 125.826L414.193 124.789C414.642 124.341 414.63 123.623 414.194 123.187L412.69 121.685C412.254 121.249 411.536 121.236 411.087 121.684L410.049 122.722C409.729 123.042 409.232 123.105 408.842 122.874C407.894 122.314 406.874 121.891 405.81 121.617C405.372 121.504 405.065 121.109 405.065 120.657V119.192C405.065 118.568 404.557 118.06 403.932 118.06H401.806C401.181 118.06 400.672 118.568 400.672 119.192V120.656C400.672 121.109 400.366 121.504 399.928 121.617C398.864 121.891 397.844 122.314 396.896 122.874C396.506 123.105 396.009 123.042 395.689 122.722L394.651 121.685C394.203 121.237 393.485 121.247 393.048 121.684L391.544 123.187C391.109 123.621 391.094 124.339 391.544 124.788L392.582 125.826C392.903 126.146 392.966 126.642 392.735 127.031C392.174 127.978 391.751 128.998 391.476 130.061C391.363 130.499 390.968 130.805 390.515 130.805H389.05C388.425 130.805 387.916 131.313 387.916 131.938V134.062C387.916 134.686 388.425 135.194 389.05 135.194H390.515C390.968 135.194 391.363 135.5 391.476 135.938C391.751 137.001 392.174 138.021 392.735 138.968C392.965 139.357 392.903 139.854 392.582 140.174L391.544 141.211C391.096 141.659 391.107 142.377 391.544 142.812L393.047 144.315C393.483 144.751 394.202 144.763 394.65 144.315L395.689 143.277C395.925 143.042 396.416 142.842 396.896 143.125V143.125Z" fill="#417AC9"/>
<path d="M402.869 140.364C398.805 140.364 395.499 137.06 395.499 133C395.499 128.939 398.805 125.635 402.869 125.635C406.933 125.635 410.24 128.939 410.24 133C410.24 137.06 406.933 140.364 402.869 140.364V140.364ZM402.869 127.619C399.9 127.619 397.484 130.033 397.484 133C397.484 135.967 399.9 138.381 402.869 138.381C405.839 138.381 408.255 135.967 408.255 133C408.255 130.033 405.839 127.619 402.869 127.619V127.619Z" fill="#417AC9"/>
</g>
<g clip-path="url(#clip3)">
<path d="M417.772 275.878L369.621 190.471C365.515 183.012 354.317 183.012 350.211 190.471L302.06 275.878C297.954 283.337 303.18 292.661 311.765 292.661H407.694C416.652 292.288 421.878 283.337 417.772 275.878Z" fill="#FF6489"/>
<path d="M359.916 196.065L408.067 281.472H311.765L359.916 196.065Z" fill="#FF6489"/>
<path d="M352.077 235.226L355.063 254.993C355.437 257.23 357.303 259.095 359.916 259.095C362.155 259.095 364.395 257.23 364.768 254.993L367.754 235.226C368.501 230.378 364.768 226.275 359.916 226.275C355.063 226.275 351.704 230.378 352.077 235.226Z" fill="white"/>
<path d="M359.916 272.149C362.39 272.149 364.395 270.145 364.395 267.673C364.395 265.201 362.39 263.198 359.916 263.198C357.442 263.198 355.437 265.201 355.437 267.673C355.437 270.145 357.442 272.149 359.916 272.149Z" fill="white"/>
</g>
<defs>
<clipPath id="clip0">
<rect width="270.994" height="270.77" fill="white" transform="translate(92.3066 49.2302)"/>
</clipPath>
<clipPath id="clip1">
<rect width="25.4057" height="25.3847" fill="white" transform="translate(39.2705 64.461)"/>
</clipPath>
<clipPath id="clip2">
<rect width="33.8743" height="33.8462" fill="white" transform="translate(385.932 116.077)"/>
</clipPath>
<clipPath id="clip3">
<rect width="118.56" height="118.462" fill="white" transform="translate(300.634 179.538)"/>
</clipPath>
</defs>
</svg>
