<svg width="20" height="20" viewBox="0 0 20 20" fill="none" xmlns="http://www.w3.org/2000/svg">
<path d="M10 0C6.12102 0 2.96875 3.15234 2.96875 7.03125C2.96875 8.34375 3.33211 9.62113 4.02348 10.7227L9.52336 19.7232C9.61719 19.8756 9.75781 19.9694 9.92191 19.9928C10.1445 20.0279 10.3907 19.9342 10.5196 19.7116L16.0352 10.6289C16.6914 9.55082 17.0312 8.29691 17.0312 7.03125C17.0312 3.15234 13.879 0 10 0ZM10 10.5469C8.03133 10.5469 6.48438 8.95312 6.48438 7.03125C6.48438 5.09762 8.06637 3.51562 10 3.51562C11.9336 3.51562 13.5156 5.09762 13.5156 7.03125C13.5156 8.94141 11.9921 10.5469 10 10.5469Z" fill="#417AC9"/>
</svg>
