<svg width="56" height="56" viewBox="0 0 56 56" fill="none" xmlns="http://www.w3.org/2000/svg">
<g clip-path="url(#clip0)">
<path d="M54.25 13.625H1.75C0.991107 13.625 0.375 13.0089 0.375 12.25C0.375 11.4911 0.991107 10.875 1.75 10.875H54.25C55.0089 10.875 55.625 11.4911 55.625 12.25C55.625 13.0089 55.0089 13.625 54.25 13.625Z" fill="#417AC9" stroke="white" stroke-width="0.75"/>
<path d="M49.5833 53.2916H6.41667C3.08411 53.2916 0.375 50.5825 0.375 47.2499V8.74992C0.375 5.41736 3.08411 2.70825 6.41667 2.70825H49.5833C52.9159 2.70825 55.625 5.41736 55.625 8.74992V47.2499C55.625 50.5825 52.9159 53.2916 49.5833 53.2916ZM6.41667 5.45825C4.60189 5.45825 3.125 6.93514 3.125 8.74992V47.2499C3.125 49.0647 4.60189 50.5416 6.41667 50.5416H49.5833C51.3981 50.5416 52.875 49.0647 52.875 47.2499V8.74992C52.875 6.93514 51.3981 5.45825 49.5833 5.45825H6.41667Z" fill="#417AC9" stroke="white" stroke-width="0.75"/>
<rect x="14.75" y="22.75" width="6.5" height="18.5" stroke="#417AC9" stroke-width="1.5"/>
<rect x="24.75" y="28.75" width="6.5" height="12.5" stroke="#417AC9" stroke-width="1.5"/>
<rect x="34.75" y="20.75" width="6.5" height="20.5" stroke="#417AC9" stroke-width="1.5"/>
</g>
<defs>
<clipPath id="clip0">
<rect width="56" height="56" fill="white"/>
</clipPath>
</defs>
</svg>
