<svg width="56" height="56" viewBox="0 0 56 56" fill="none" xmlns="http://www.w3.org/2000/svg">
<path d="M41.0666 0H14.9333C12.3573 0.00303333 10.2696 2.09067 10.2666 4.66667V51.3333C10.2696 53.9093 12.3573 55.997 14.9333 56H41.0666C43.6426 55.997 45.7302 53.9093 45.7333 51.3333V4.66667C45.7302 2.09067 43.6426 0.00303333 41.0666 0ZM43.8666 51.3333C43.8666 52.8797 42.613 54.1333 41.0666 54.1333H14.9333C13.3869 54.1333 12.1333 52.8797 12.1333 51.3333V46.6667H43.8666V51.3333ZM43.8666 44.8H12.1333V7.46667H43.8666V44.8ZM43.8666 5.6H12.1333V4.66667C12.1333 3.12025 13.3869 1.86667 14.9333 1.86667H41.0666C42.613 1.86667 43.8666 3.12025 43.8666 4.66667V5.6Z" fill="#417AC9"/>
<path d="M28.0002 47.6C26.4538 47.6 25.2002 48.8536 25.2002 50.4C25.2002 51.9464 26.4538 53.2 28.0002 53.2C29.5466 53.2 30.8002 51.9464 30.8002 50.4C30.8002 48.8536 29.5466 47.6 28.0002 47.6ZM28.0002 51.3333C27.4848 51.3333 27.0669 50.9154 27.0669 50.4C27.0669 49.8845 27.4848 49.4666 28.0002 49.4666C28.5156 49.4666 28.9335 49.8845 28.9335 50.4C28.9335 50.9154 28.5156 51.3333 28.0002 51.3333Z" fill="#417AC9"/>
<path d="M28.9338 2.80005H27.0671C26.5517 2.80005 26.1338 3.21795 26.1338 3.73338C26.1338 4.24882 26.5517 4.66672 27.0671 4.66672H28.9338C29.4492 4.66672 29.8671 4.24882 29.8671 3.73338C29.8671 3.21795 29.4492 2.80005 28.9338 2.80005Z" fill="#417AC9"/>
<path d="M18.5472 32.9269L18.5466 32.9263C18.1508 32.5305 18.1508 31.8889 18.5466 31.4931L23.1255 26.9142L23.3022 26.7374L23.1255 26.5606L18.5449 21.98C18.1491 21.5843 18.1491 20.9426 18.5449 20.5468C18.9407 20.1511 19.5823 20.1511 19.9781 20.5468L25.4512 26.02C25.847 26.4157 25.847 27.0574 25.4512 27.4532L19.9781 32.9263L19.9775 32.9269C19.7808 33.1249 19.5223 33.2235 19.2623 33.2235C19.0024 33.2235 18.7439 33.1249 18.5472 32.9269Z" fill="#417AC9" stroke="white" stroke-width="0.5"/>
<path d="M36.748 32.75H29.248C28.6961 32.75 28.248 32.3019 28.248 31.75C28.248 31.1981 28.6961 30.75 29.248 30.75H36.748C37.3 30.75 37.748 31.1981 37.748 31.75C37.748 32.3019 37.3 32.75 36.748 32.75Z" fill="#417AC9" stroke="white" stroke-width="0.5"/>
</svg>
