<svg width="56" height="56" viewBox="0 0 56 56" fill="none" xmlns="http://www.w3.org/2000/svg">
<g clip-path="url(#clip0)">
<path d="M14.7797 41.2224L14.7788 41.2215C14.2416 40.6842 14.2416 39.8133 14.7788 39.2761L21.1231 32.9318L21.3883 32.6666L21.1231 32.4015L14.7765 26.0548C14.2392 25.5176 14.2392 24.6467 14.7765 24.1095C15.3137 23.5722 16.1846 23.5722 16.7218 24.1095L24.3051 31.6928C24.8423 32.23 24.8423 33.1009 24.3051 33.6381L16.7218 41.2215L16.7209 41.2224C16.454 41.4911 16.1033 41.625 15.7503 41.625C15.3973 41.625 15.0466 41.4911 14.7797 41.2224Z" fill="#417AC9" stroke="white" stroke-width="0.75"/>
<path d="M40.25 41.625H29.75C28.9911 41.625 28.375 41.0089 28.375 40.25C28.375 39.4911 28.9911 38.875 29.75 38.875H40.25C41.0089 38.875 41.625 39.4911 41.625 40.25C41.625 41.0089 41.0089 41.625 40.25 41.625Z" fill="#417AC9" stroke="white" stroke-width="0.75"/>
<path d="M54.25 13.625H1.75C0.991107 13.625 0.375 13.0089 0.375 12.25C0.375 11.4911 0.991107 10.875 1.75 10.875H54.25C55.0089 10.875 55.625 11.4911 55.625 12.25C55.625 13.0089 55.0089 13.625 54.25 13.625Z" fill="#417AC9" stroke="white" stroke-width="0.75"/>
<path d="M49.5833 53.2916H6.41667C3.08411 53.2916 0.375 50.5825 0.375 47.2499V8.74992C0.375 5.41736 3.08411 2.70825 6.41667 2.70825H49.5833C52.9159 2.70825 55.625 5.41736 55.625 8.74992V47.2499C55.625 50.5825 52.9159 53.2916 49.5833 53.2916ZM6.41667 5.45825C4.60189 5.45825 3.125 6.93514 3.125 8.74992V47.2499C3.125 49.0647 4.60189 50.5416 6.41667 50.5416H49.5833C51.3981 50.5416 52.875 49.0647 52.875 47.2499V8.74992C52.875 6.93514 51.3981 5.45825 49.5833 5.45825H6.41667Z" fill="#417AC9" stroke="white" stroke-width="0.75"/>
</g>
<defs>
<clipPath id="clip0">
<rect width="56" height="56" fill="white"/>
</clipPath>
</defs>
</svg>
