<svg width="36" height="36" viewBox="0 0 36 36" fill="none" xmlns="http://www.w3.org/2000/svg">
<circle cx="18" cy="18" r="17" stroke="#FF6489" stroke-width="2"/>
<path d="M15.0123 11.9024L16.3143 20.5203C16.477 21.4959 17.2906 22.3089 18.4298 22.3089C19.4062 22.3089 20.3827 21.4959 20.5454 20.5203L21.8474 11.9024C22.1728 9.78857 20.5454 8 18.4298 8C16.3141 7.99989 14.8495 9.78857 15.0123 11.9024Z" fill="#FF6489"/>
<path d="M18.4299 28.0002C19.5085 28.0002 20.3828 27.1266 20.3828 26.0489C20.3828 24.9713 19.5085 24.0977 18.4299 24.0977C17.3514 24.0977 16.4771 24.9713 16.4771 26.0489C16.4771 27.1266 17.3514 28.0002 18.4299 28.0002Z" fill="#FF6489"/>
</svg>
