<svg width="36" height="36" viewBox="0 0 36 36" fill="none" xmlns="http://www.w3.org/2000/svg">
<circle cx="18" cy="18" r="17" stroke="#417AC9" stroke-width="2"/>
<path d="M9.53773 19.5049L9.53771 19.5048C8.98743 18.9548 8.98743 18.0658 9.53771 17.5158L9.53775 17.5158C10.0878 16.9656 10.9766 16.9655 11.5269 17.5158L15.4224 21.411L15.5107 21.4994L15.5991 21.411L24.4733 12.5377L24.4733 12.5377C25.0233 11.9874 25.9122 11.9874 26.4625 12.5377L26.5502 12.45L26.4625 12.5377C27.0125 13.0877 27.0125 13.9764 26.4625 14.5267C26.4625 14.5267 26.4625 14.5268 26.4625 14.5268L16.5053 24.483C16.2309 24.7574 15.871 24.8954 15.5108 24.8954C15.1505 24.8954 14.7906 24.7574 14.5162 24.483L9.53773 19.5049Z" fill="#417AC9" stroke="white" stroke-width="0.25"/>
</svg>
