<svg width="19" height="10" viewBox="0 0 19 10" fill="none" xmlns="http://www.w3.org/2000/svg">
<path d="M8.93483 9.19784L8.93462 9.19765L1.55461 2.34624L1.55451 2.34614C1.09945 1.92343 1.10046 1.22221 1.5567 0.800587L1.55682 0.800478C1.99126 0.399254 2.68006 0.400313 3.11332 0.80251L3.11333 0.802519L9.71389 6.93028L16.3144 0.802294L16.3145 0.802234C16.7478 0.400125 17.4362 0.399066 17.8707 0.800203L17.8709 0.800357C18.0942 1.00673 18.2139 1.28673 18.2139 1.57425C18.2139 1.8609 18.095 2.13995 17.8731 2.34611L17.873 2.34621L10.4936 9.19725C10.4935 9.19733 10.4934 9.19742 10.4933 9.1975C10.2805 9.39536 9.99922 9.5 9.7139 9.5C9.42788 9.5 9.14716 9.39474 8.93483 9.19784Z" fill="#417AC9" stroke="#417AC9"/>
</svg>
