<svg width="24" height="24" viewBox="0 0 24 24" fill="none" xmlns="http://www.w3.org/2000/svg">
<path d="M12 0C7.34522 0 3.5625 3.78281 3.5625 8.4375C3.5625 10.0125 3.99853 11.5454 4.82817 12.8672L11.428 23.6679C11.5406 23.8507 11.7094 23.9632 11.9063 23.9914C12.1734 24.0335 12.4688 23.9211 12.6235 23.6539L19.2422 12.7547C20.0296 11.461 20.4375 9.9563 20.4375 8.4375C20.4375 3.78281 16.6548 0 12 0ZM12 12.6562C9.63759 12.6562 7.78125 10.7438 7.78125 8.4375C7.78125 6.11714 9.67964 4.21875 12 4.21875C14.3204 4.21875 16.2188 6.11714 16.2188 8.4375C16.2188 10.7297 14.3906 12.6562 12 12.6562Z" fill="#C00000"/>
</svg>
