<svg width="32" height="33" viewBox="0 0 32 33" fill="none" xmlns="http://www.w3.org/2000/svg">
<g clip-path="url(#clip0)">
<path d="M31.9192 28.4128C31.7785 27.737 31.1167 27.3032 30.4407 27.4439C29.7648 27.5846 29.331 28.2466 29.4717 28.9224C29.5528 29.3117 29.4562 29.7107 29.207 30.0173C29.0626 30.1949 28.7407 30.4927 28.207 30.4927H3.79367C3.26004 30.4927 2.93811 30.1948 2.79373 30.0173C2.54442 29.7107 2.44792 29.3117 2.52898 28.9224C3.82623 22.6914 9.32217 18.1398 15.669 17.9863C15.7789 17.9906 15.8894 17.9927 16.0004 17.9927C16.1117 17.9927 16.2226 17.9905 16.333 17.9862C20.8037 18.0935 24.936 20.3579 27.4384 24.09C27.8228 24.6634 28.5993 24.8166 29.1728 24.4321C29.7462 24.0477 29.8993 23.2712 29.5148 22.6978C27.4638 19.6388 24.4855 17.4144 21.0896 16.2967C23.159 14.7449 24.5004 12.2725 24.5004 9.49268C24.5004 4.8058 20.6873 0.992676 16.0004 0.992676C11.3134 0.992676 7.50036 4.8058 7.50036 9.49268C7.50036 12.2742 8.84336 14.7479 10.9149 16.2996C9.01692 16.9245 7.23598 17.8968 5.67723 19.1789C2.81898 21.53 0.83167 24.8093 0.0814824 28.4128C-0.153643 29.542 0.128045 30.7017 0.85417 31.5946C1.57673 32.4831 2.64817 32.9927 3.79367 32.9927H28.207C29.3525 32.9927 30.424 32.4831 31.1465 31.5946C31.8727 30.7017 32.1544 29.542 31.9192 28.4128ZM10.0004 9.49268C10.0004 6.18424 12.6919 3.49268 16.0004 3.49268C19.3088 3.49268 22.0004 6.18424 22.0004 9.49268C22.0004 12.6992 19.4719 15.3264 16.304 15.4851C16.203 15.4832 16.1017 15.4822 16.0004 15.4822C15.8995 15.4822 15.7986 15.4832 15.6979 15.4851C12.5294 15.3271 10.0004 12.6997 10.0004 9.49268Z" fill="white"/>
</g>
<defs>
<clipPath id="clip0">
<rect width="32" height="32" fill="white" transform="translate(0 0.992676)"/>
</clipPath>
</defs>
</svg>
