<svg width="20" height="20" viewBox="0 0 20 20" fill="none" xmlns="http://www.w3.org/2000/svg">
<path d="M19.8729 9.61022C19.6942 9.36582 15.4371 3.62598 9.9999 3.62598C4.56274 3.62598 0.305391 9.36582 0.126914 9.60998C-0.0423048 9.84185 -0.0423048 10.1563 0.126914 10.3882C0.305391 10.6326 4.56274 16.3724 9.9999 16.3724C15.4371 16.3724 19.6942 10.6325 19.8729 10.3884C20.0423 10.1566 20.0423 9.84185 19.8729 9.61022ZM9.9999 15.0538C5.99485 15.0538 2.52606 11.2442 1.49922 9.99875C2.52473 8.75223 5.98626 4.94457 9.9999 4.94457C14.0048 4.94457 17.4733 8.75355 18.5006 9.99965C17.4751 11.2461 14.0135 15.0538 9.9999 15.0538Z" fill="#417AC9"/>
<path d="M9.99952 6.04395C7.81819 6.04395 6.04346 7.81867 6.04346 10C6.04346 12.1813 7.81819 13.9561 9.99952 13.9561C12.1809 13.9561 13.9556 12.1813 13.9556 10C13.9556 7.81867 12.1809 6.04395 9.99952 6.04395ZM9.99952 12.6374C8.54522 12.6374 7.36217 11.4543 7.36217 10C7.36217 8.54575 8.54526 7.36266 9.99952 7.36266C11.4538 7.36266 12.6369 8.54575 12.6369 10C12.6369 11.4543 11.4538 12.6374 9.99952 12.6374Z" fill="#417AC9"/>
</svg>
