<svg width="64" height="64" viewBox="0 0 64 64" fill="none" xmlns="http://www.w3.org/2000/svg">
<circle cx="32" cy="32" r="32" fill="#67BFFF"/>
<g clip-path="url(#clip0)">
<path d="M40.4583 27.2604C36.7177 27.2604 33.4438 29.2802 31.6646 32.2916L22.7396 28.4489C22.7833 28.1791 22.8125 27.9093 22.8125 27.625C22.8125 27.3479 22.7833 27.0708 22.7396 26.801L31.8833 22.8635C32.6198 23.7677 33.7427 24.3437 34.9896 24.3437C37.199 24.3437 39 22.5427 39 20.3333C39 18.1239 37.199 16.3229 34.9896 16.3229C32.7802 16.3229 30.9792 18.1239 30.9792 20.3333C30.9792 20.5083 30.9938 20.6833 31.0156 20.8583L21.8719 24.7958C21.0115 23.6364 19.6261 22.8854 18.0729 22.8854C15.4625 22.8854 13.3333 25.0145 13.3333 27.625C13.3333 30.2354 15.4625 32.3645 18.0729 32.3645C19.6261 32.3645 21.0115 31.6135 21.8719 30.4541L30.7604 34.2823C30.4323 35.2812 30.25 36.3531 30.25 37.4687C30.25 43.0979 34.8292 47.677 40.4583 47.677C46.0875 47.677 50.6667 43.0979 50.6667 37.4687C50.6667 31.8395 46.0875 27.2604 40.4583 27.2604ZM34.9896 18.5104C35.9958 18.5104 36.8125 19.327 36.8125 20.3333C36.8125 21.3395 35.9958 22.1562 34.9896 22.1562C33.9833 22.1562 33.1667 21.3395 33.1667 20.3333C33.1667 19.327 33.9833 18.5104 34.9896 18.5104ZM18.0729 30.177C16.6656 30.177 15.5208 29.0323 15.5208 27.625C15.5208 26.2177 16.6656 25.0729 18.0729 25.0729C19.4802 25.0729 20.625 26.2177 20.625 27.625C20.625 29.0323 19.4802 30.177 18.0729 30.177ZM40.4583 45.1104C36.2292 45.1104 32.8021 41.6833 32.8021 37.4614C32.8021 33.2395 36.2292 29.8125 40.4583 29.8125C44.6875 29.8125 48.1146 33.2395 48.1146 37.4614C48.1146 41.6833 44.6875 45.1104 40.4583 45.1104Z" fill="white"/>
</g>
<defs>
<clipPath id="clip0">
<rect width="37.3333" height="37.3333" fill="white" transform="translate(13.3333 13.3333)"/>
</clipPath>
</defs>
</svg>
