<svg width="20" height="20" viewBox="0 0 20 20" fill="none" xmlns="http://www.w3.org/2000/svg">
<path d="M2.13196 16.647C1.13771 17.1089 0 16.3829 0 15.2866V7.85138C0 4.82497 2.46266 2.3623 5.48907 2.3623H14.5096C17.5367 2.3623 20 4.82497 20 7.85138V9.53931C20 12.5657 17.5373 15.0284 14.5109 15.0284H5.61632L2.13196 16.647ZM5.48907 3.58605C3.13718 3.58605 1.22375 5.49948 1.22375 7.85138V15.7194L5.34665 13.804H14.5109C16.8628 13.804 18.7762 11.8905 18.7762 9.53865V7.85072C18.7762 5.49882 16.8622 3.5854 14.5096 3.5854L5.48907 3.58605ZM5.89259 7.75841C6.53546 7.75841 7.05634 8.27929 7.05634 8.92216C7.05634 9.56502 6.53546 10.0859 5.89259 10.0859C5.24973 10.0859 4.72884 9.56502 4.72884 8.92216C4.72884 8.27929 5.24973 7.75841 5.89259 7.75841ZM14.1067 7.75841C14.7496 7.75841 15.2705 8.27929 15.2705 8.92216C15.2705 9.56502 14.7496 10.0859 14.1067 10.0859C13.4639 10.0859 12.943 9.56502 12.943 8.92216C12.943 8.27929 13.4639 7.75841 14.1067 7.75841ZM9.99901 7.75841C10.6419 7.75841 11.1628 8.27929 11.1628 8.92216C11.1628 9.56502 10.6419 10.0859 9.99901 10.0859C9.35615 10.0859 8.83526 9.56502 8.83526 8.92216C8.83526 8.27929 9.35615 7.75841 9.99901 7.75841Z" fill="#417AC9"/>
</svg>
