<?xml version="1.0" encoding="UTF-8" standalone="no"?>
<svg
   xmlns:dc="http://purl.org/dc/elements/1.1/"
   xmlns:cc="http://creativecommons.org/ns#"
   xmlns:rdf="http://www.w3.org/1999/02/22-rdf-syntax-ns#"
   xmlns:svg="http://www.w3.org/2000/svg"
   xmlns="http://www.w3.org/2000/svg"
   xmlns:sodipodi="http://sodipodi.sourceforge.net/DTD/sodipodi-0.dtd"
   xmlns:inkscape="http://www.inkscape.org/namespaces/inkscape"
   width="64"
   height="64"
   viewBox="0 0 64 64"
   fill="none"
   id="svg2"
   version="1.1"
   inkscape:version="0.48.4 r9939"
   sodipodi:docname="ic-low-cost.svg">
  <metadata
     id="metadata14">
    <rdf:RDF>
      <cc:Work
         rdf:about="">
        <dc:format>image/svg+xml</dc:format>
        <dc:type
           rdf:resource="http://purl.org/dc/dcmitype/StillImage" />
      </cc:Work>
    </rdf:RDF>
  </metadata>
  <defs
     id="defs12" />
  <sodipodi:namedview
     pagecolor="#ffffff"
     bordercolor="#666666"
     borderopacity="1"
     objecttolerance="10"
     gridtolerance="10"
     guidetolerance="10"
     inkscape:pageopacity="0"
     inkscape:pageshadow="2"
     inkscape:window-width="1366"
     inkscape:window-height="705"
     id="namedview10"
     showgrid="false"
     inkscape:zoom="3.6875"
     inkscape:cx="-10.305085"
     inkscape:cy="32"
     inkscape:window-x="-8"
     inkscape:window-y="-8"
     inkscape:window-maximized="1"
     inkscape:current-layer="svg2" />
  <circle
     cx="32"
     cy="32"
     r="32"
     fill="#8FFF68"
     id="circle4"
     style="fill:#51ff8a;fill-opacity:1" />
  <path
     d="M21.7891 29.4727H22.9609C24.1094 29.4727 24.957 29.2812 25.5039 28.8984C26.0508 28.5156 26.3242 27.9141 26.3242 27.0938C26.3242 26.2812 26.043 25.7031 25.4805 25.3594C24.9258 25.0156 24.0625 24.8438 22.8906 24.8438H21.7891V29.4727ZM21.7891 32.4258V39H18.1562V21.8672H23.1484C25.4766 21.8672 27.1992 22.293 28.3164 23.1445C29.4336 23.9883 29.9922 25.2734 29.9922 27C29.9922 28.0078 29.7148 28.9062 29.1602 29.6953C28.6055 30.4766 27.8203 31.0898 26.8047 31.5352C29.3828 35.3867 31.0625 37.875 31.8438 39H27.8125L23.7227 32.4258H21.7891Z"
     fill="white"
     id="path6" />
  <path
     d="M42.0703 40.2344C40.5312 40.2344 39.3242 39.6758 38.4492 38.5586H38.2617C38.3867 39.6523 38.4492 40.2852 38.4492 40.457V45.7656H34.875V26.8984H37.7812L38.2852 28.5977H38.4492C39.2852 27.3008 40.5234 26.6523 42.1641 26.6523C43.7109 26.6523 44.9219 27.25 45.7969 28.4453C46.6719 29.6406 47.1094 31.3008 47.1094 33.4258C47.1094 34.8242 46.9023 36.0391 46.4883 37.0703C46.082 38.1016 45.5 38.8867 44.7422 39.4258C43.9844 39.9648 43.0938 40.2344 42.0703 40.2344ZM41.0156 29.5117C40.1328 29.5117 39.4883 29.7852 39.082 30.332C38.6758 30.8711 38.4648 31.7656 38.4492 33.0156V33.4023C38.4492 34.8086 38.6562 35.8164 39.0703 36.4258C39.4922 37.0352 40.1562 37.3398 41.0625 37.3398C42.6641 37.3398 43.4648 36.0195 43.4648 33.3789C43.4648 32.0898 43.2656 31.125 42.8672 30.4844C42.4766 29.8359 41.8594 29.5117 41.0156 29.5117Z"
     fill="white"
     id="path8" />
</svg>
