<svg width="80" height="57" viewBox="0 0 80 57" fill="none" xmlns="http://www.w3.org/2000/svg">
<path d="M77.7322 24.319L64.0279 0.698185C63.634 0.0284388 62.7805 -0.200254 62.1076 0.191793L58.1194 2.47873C57.4465 2.87078 57.2167 3.72021 57.6106 4.38996L71.2986 28.0108C71.6924 28.6805 72.5459 28.9092 73.2188 28.5172L77.207 26.2302C77.8963 25.8545 78.1261 24.9888 77.7322 24.319Z" fill="#AEECFF"/>
<path d="M11.9272 26.1467L21.9109 9.58533L26.5981 10.6321C26.5981 10.6321 27.4262 16.2567 30.7697 17.1942C34.1132 18.1316 35.3475 16.3661 39.9878 16.9911C44.6281 17.616 54.0962 24.6624 59.0021 28.4278C63.8924 32.1931 65.0486 33.0368 64.8299 35.3179C64.6111 37.599 60.6583 38.0209 60.6583 38.0209C60.6583 38.0209 60.9708 44.0673 57.1116 43.4424C53.2525 42.8174 57.0023 52.3011 51.5964 49.5826C46.1749 46.8796 48.3622 54.0666 45.0343 52.9105C41.7064 51.7699 39.9878 49.8951 39.9878 49.8951C39.9878 49.8951 39.5191 45.6297 37.6442 45.0048C35.7694 44.3798 39.3316 45.1454 37.5349 40.8332C36.5193 38.3958 36.8162 37.6771 33.9101 37.6771C32.0509 37.6771 39.9878 26.4592 29.6292 29.7871C24.2077 31.5369 29.1448 23.1 23.8327 25.803C18.5205 28.5059 17.1925 28.8652 17.1925 28.8652L11.9272 26.1467Z" fill="#AEECFF"/>
<path d="M79.485 23.3037L76.7664 18.5072C76.3446 17.7572 75.3915 17.4916 74.6416 17.9135C73.8916 18.3353 73.626 19.2884 74.0479 20.0383L76.7664 24.8349C76.907 25.0692 76.8602 25.3036 76.8289 25.4286C76.7977 25.538 76.7039 25.7567 76.4852 25.8817L72.298 28.194C71.923 28.3971 71.4387 28.2722 71.2355 27.9128L70.1731 26.0379C70.1731 26.0223 70.1575 26.0223 70.1575 26.0067L59.1739 6.57052C59.0333 6.33616 59.0801 6.1018 59.1114 5.99243C59.1426 5.88307 59.2364 5.67995 59.4551 5.55496L63.6423 3.24262C64.0173 3.03951 64.486 3.1645 64.7048 3.52385L67.1577 7.85168C67.5795 8.60163 68.5326 8.86724 69.2826 8.44539C70.0325 8.02354 70.2981 7.07048 69.8763 6.32053L67.4233 1.99271C66.3765 0.149084 64.0017 -0.522745 62.1424 0.508434L57.9552 2.82078C57.049 3.32074 56.3928 4.14881 56.1116 5.14874C55.846 6.1018 55.9397 7.08611 56.3772 7.94542L54.0649 8.61725C53.0805 8.89848 52.4868 9.05472 52.1587 9.05472C51.9244 9.05472 51.69 8.96098 50.9713 8.69537C50.6432 8.57038 50.2526 8.41414 49.7526 8.24228L45.6592 6.8205C43.3937 6.02368 42.3782 6.07055 40.8939 6.21117L33.9256 6.83612C30.754 7.11735 28.7228 7.83606 27.5979 9.07035L23.6294 7.91417C24.0513 7.05486 24.145 6.07055 23.8794 5.13312C23.5982 4.13319 22.942 3.30512 22.0358 2.80515L17.8486 0.49281C15.9737 -0.538369 13.5989 0.117835 12.5521 1.97708L0.506029 23.3037C-0.00956105 24.2099 -0.134552 25.2724 0.146678 26.2879C0.427909 27.2878 1.08411 28.1159 1.9903 28.6159L6.17751 30.9282C6.77122 31.2563 7.42743 31.4126 8.06801 31.4126C9.42729 31.4126 10.7553 30.7095 11.474 29.4439L11.9115 28.6628C13.1145 29.194 14.1301 29.9595 14.8175 30.8813C14.1457 31.6625 13.7239 32.6469 13.5989 33.6937C13.4426 35.0998 13.8332 36.4591 14.7082 37.5684C15.5831 38.6464 16.8174 39.3339 18.2079 39.5058C18.0673 40.8963 18.4579 42.2556 19.3329 43.3336C20.2234 44.4585 21.5046 45.1147 22.8326 45.271C22.692 46.6615 23.0826 48.0208 23.9419 49.0988C24.8169 50.1925 26.0511 50.88 27.4417 51.0362C27.3011 52.4267 27.6917 53.786 28.5666 54.8641C29.5978 56.1609 31.1289 56.8327 32.6757 56.8327C33.8319 56.8327 34.988 56.4577 35.9567 55.6765L39.2221 53.0517C39.4877 52.8486 39.7221 52.6142 39.9252 52.3642L41.8001 53.8641C42.7688 54.6297 43.9249 55.0047 45.0811 55.0047C46.6279 55.0047 48.159 54.3329 49.1902 53.0361C49.737 52.3486 50.0807 51.5674 50.237 50.7706C50.7838 50.9581 51.3619 51.0518 51.9556 51.0518C52.1587 51.0518 52.3462 51.0362 52.5493 51.0206C53.9555 50.8643 55.2054 50.1769 56.0647 49.0832C56.9397 48.0052 57.3303 46.6459 57.1896 45.2554C58.5177 45.0991 59.7832 44.4429 60.6894 43.318C61.58 42.1931 61.9393 40.8182 61.7987 39.4901C63.1892 39.3339 64.4235 38.6464 65.2985 37.5684C66.1734 36.4747 66.564 35.0998 66.4234 33.7093C66.2984 32.6469 65.8765 31.6782 65.2047 30.8813C65.8922 29.9752 66.9077 29.194 68.1108 28.6628L68.5482 29.4439C69.2669 30.6939 70.5793 31.4126 71.9542 31.4126C72.5948 31.4126 73.251 31.2563 73.8447 30.9282L78.032 28.6159C78.9381 28.1159 79.5943 27.2878 79.8756 26.2879C80.1256 25.2724 80.0006 24.2256 79.485 23.3037ZM8.73984 27.9128C8.53673 28.2722 8.05239 28.3971 7.67741 28.194L3.4902 25.8817C3.25584 25.7567 3.17772 25.5536 3.14647 25.4286C3.11522 25.3192 3.08398 25.0849 3.22459 24.8349L15.2863 3.4926C15.4269 3.24262 15.6925 3.11763 15.9581 3.11763C16.0831 3.11763 16.2237 3.14888 16.3487 3.21137L20.5359 5.52372C20.7703 5.64871 20.8484 5.85182 20.8796 5.96118C20.9109 6.07055 20.9421 6.30491 20.8015 6.55489L8.73984 27.9128ZM20.1453 35.9591C19.7078 36.3185 19.1454 36.4747 18.5829 36.4122C18.0205 36.3497 17.5049 36.0685 17.1611 35.631C16.8018 35.1936 16.6455 34.6311 16.708 34.0686C16.7705 33.5062 17.0518 32.9906 17.4892 32.6469L23.3326 27.9753C24.2544 27.241 25.5981 27.3972 26.3324 28.3034C26.6917 28.7409 26.848 29.3033 26.7855 29.8658C26.723 30.4283 26.4417 30.9282 26.0043 31.2876C25.9887 31.2876 25.9887 31.3032 25.973 31.3188L20.1453 35.9591ZM21.7546 41.3806C21.3952 40.9432 21.239 40.3807 21.3015 39.8182C21.364 39.2558 21.6452 38.7402 22.0827 38.3965L30.504 31.6625C31.4258 30.9282 32.7694 31.0845 33.5038 31.9906C33.8631 32.4281 34.0194 32.9906 33.9569 33.553C33.8944 34.1155 33.6131 34.6311 33.1757 34.9748L24.7544 41.7087C23.8326 42.4587 22.4889 42.3024 21.7546 41.3806ZM27.801 47.9271C27.2386 47.8646 26.723 47.5833 26.3793 47.1459C26.0199 46.7084 25.8637 46.1459 25.9262 45.5835C25.9887 45.021 26.2699 44.5054 26.7074 44.1617L32.5351 39.5058L32.5507 39.4901C33.4725 38.7558 34.8162 38.912 35.5505 39.8182C35.9099 40.2557 36.0661 40.8182 36.0036 41.3806C35.9411 41.9431 35.6599 42.4587 35.2224 42.8024L29.3634 47.474C28.926 47.8333 28.3635 47.9895 27.801 47.9271ZM38.0347 49.1926C37.9722 49.7551 37.691 50.2706 37.2535 50.6144L33.9881 53.2392C33.0663 53.9735 31.7226 53.8329 30.9883 52.9111C30.629 52.4736 30.4727 51.9112 30.5352 51.3487C30.5977 50.7862 30.8789 50.2706 31.3164 49.9269L34.5818 47.3177C35.5036 46.5834 36.8473 46.7396 37.5816 47.6458C37.941 48.0833 38.0972 48.6301 38.0347 49.1926ZM62.8299 35.631C62.4705 36.0685 61.9706 36.3497 61.4081 36.4122C60.8456 36.4747 60.2832 36.3185 59.8457 35.9591L55.6585 32.6156C54.9867 32.0844 54.0024 32.1938 53.4555 32.8656C52.9243 33.5374 53.0337 34.5217 53.7055 35.0686L57.8771 38.4121C58.7989 39.1464 58.9395 40.4901 58.2208 41.3963C57.4865 42.3181 56.1428 42.4587 55.221 41.7243L50.6901 38.0996C50.0183 37.5684 49.0339 37.6778 48.4871 38.3496C47.9559 39.0214 48.0653 40.0057 48.7371 40.5526L53.268 44.1773C53.7055 44.5367 53.9867 45.0366 54.0492 45.5991C54.1117 46.1615 53.9555 46.724 53.5961 47.1615C53.2524 47.5989 52.7368 47.8802 52.1744 47.9427C51.6119 48.0052 51.0494 47.8489 50.612 47.4896L48.3621 45.6928C48.3621 45.6928 48.3621 45.6928 48.3465 45.6772L46.4404 44.1461L46.081 43.8648C45.4092 43.318 44.4249 43.443 43.8781 44.1148C43.8156 44.1929 43.7531 44.2867 43.7062 44.3804C43.4874 44.8179 43.4875 45.3335 43.6906 45.771C43.7843 45.9741 43.9249 46.1615 44.1124 46.3022L46.3779 48.1145C47.2841 48.8489 47.4403 50.1925 46.706 51.0987C45.9717 52.0205 44.628 52.1611 43.7062 51.4268L41.1282 49.3645C41.2376 48.0208 40.8314 46.724 40.0033 45.6772C39.4877 45.021 38.8315 44.5367 38.1284 44.2086C38.644 43.4899 38.9721 42.6462 39.0815 41.7243C39.2377 40.3182 38.8471 38.9589 37.9722 37.8496C37.4566 37.1934 36.8004 36.7091 36.0973 36.381C36.6129 35.6623 36.941 34.803 37.0504 33.8968C37.2066 32.5062 36.816 31.1313 35.9411 30.0377C34.4412 28.1628 31.8945 27.5847 29.7853 28.4909C29.6134 27.7097 29.2697 26.9754 28.7541 26.3348C26.9417 24.0693 23.6294 23.71 21.364 25.5067L17.1924 28.8659C16.2393 27.6628 14.9582 26.6629 13.4426 25.9442L22.0514 10.7265L26.6292 12.0545C26.6449 12.3045 26.6917 12.5545 26.7542 12.8357C27.8635 17.3979 32.0664 19.5228 37.7066 18.3822C42.4719 17.4291 44.4249 18.8509 48.3309 21.6945C48.7371 21.9913 49.1589 22.2882 49.5964 22.6163C52.4087 24.6318 55.4085 26.991 57.4084 28.6003L62.4861 32.6469C62.9236 33.0062 63.2048 33.5062 63.2673 34.0686C63.3455 34.6311 63.1892 35.1936 62.8299 35.631ZM62.783 28.8659L59.377 26.1473C57.3303 24.5224 54.2992 22.1163 51.4244 20.0696C50.9869 19.7571 50.5807 19.4603 50.1745 19.1634C46.1279 16.2105 43.2062 14.0856 37.0973 15.3199C35.2224 15.6949 30.7696 16.1324 29.7853 12.1014C29.6447 11.5389 29.7853 11.3358 29.8478 11.2577C30.0509 10.9608 30.8946 10.2578 34.1912 9.96091L41.1751 9.33595C42.3157 9.22659 42.8781 9.17971 44.6124 9.78905L48.7058 11.2108C49.1589 11.3671 49.5183 11.5077 49.8464 11.6327C51.815 12.3826 52.3306 12.3826 54.9242 11.6327L57.9396 10.7577L66.5327 25.9598C65.0016 26.6629 63.7204 27.6628 62.783 28.8659Z" fill="#417AC9"/>
<path d="M71.9543 14.7411C72.8136 14.7411 73.5167 14.038 73.5167 13.1787C73.5167 12.3194 72.8136 11.6163 71.9543 11.6163C71.095 11.6163 70.3919 12.3194 70.3919 13.1787C70.3919 14.038 71.0794 14.7411 71.9543 14.7411Z" fill="#417AC9"/>
</svg>
