<svg width="64" height="64" viewBox="0 0 64 64" fill="none" xmlns="http://www.w3.org/2000/svg">
<circle cx="32" cy="32" r="32" fill="#A078F4"/>
<g clip-path="url(#clip0)">
<path d="M48.6067 23.1605C47.9619 22.4691 47.0499 22.0726 46.1043 22.0726C45.7845 22.0726 45.4712 22.116 45.1705 22.201V20.349C45.1705 19.1595 44.2019 18.1918 43.0114 18.1918H33.4746C32.9036 18.1918 32.3836 18.4144 31.9972 18.7774C31.6112 18.4177 31.0937 18.1972 30.5255 18.1972H20.9887C19.7982 18.1972 18.8296 19.165 18.8296 20.3544V35.2266C18.4577 35.1213 18.0671 35.0786 17.6755 35.1031C15.9752 35.2102 14.6035 36.571 14.4849 38.2684C14.418 39.2267 14.7407 40.14 15.3935 40.8401C16.0382 41.5315 16.9503 41.928 17.8958 41.928C18.2156 41.928 18.529 41.8845 18.8296 41.7996V43.6517C18.8296 44.8412 19.7982 45.8089 20.9887 45.8089H30.5255C31.0965 45.8089 31.6164 45.5862 32.0029 45.2233C32.3888 45.583 32.9064 45.8034 33.4746 45.8034H43.0114C44.2019 45.8034 45.1705 44.8357 45.1705 43.6462V28.774C45.5424 28.8793 45.9327 28.9219 46.3245 28.8974C48.0249 28.7904 49.3965 27.4296 49.5152 25.7322C49.5822 24.7738 49.2595 23.8605 48.6067 23.1605ZM31.3155 43.6515C31.3155 44.0861 30.9611 44.4397 30.5255 44.4397H20.9887C20.553 44.4397 20.1986 44.0861 20.1986 43.6515V40.7371C20.1986 40.4927 20.08 40.2576 19.8715 40.1302C19.7611 40.0627 19.6373 40.0296 19.5141 40.0296C19.371 40.0296 19.2287 40.0744 19.109 40.1623C18.7274 40.4425 18.2685 40.58 17.7896 40.5562C17.2873 40.5312 16.8072 40.3187 16.4507 39.9641C16.0222 39.538 15.8085 38.966 15.8506 38.3638C15.9216 37.348 16.7431 36.5336 17.7616 36.4694C18.2467 36.4393 18.7076 36.5715 19.0967 36.8528C19.2585 36.9699 19.4619 37.0227 19.6571 36.9798C19.9815 36.9085 20.1986 36.6256 20.1986 36.31V32.6875H23.6599C23.6608 32.6875 23.6989 32.6845 23.7625 32.6795C24.3183 32.6356 24.5721 31.9641 24.1845 31.5632L24.1843 31.5629C23.8762 31.1958 23.7066 30.7294 23.7066 30.2496C23.7066 29.6764 23.9378 29.1452 24.3576 28.7536C24.778 28.3615 25.3278 28.1677 25.9057 28.2079C26.9232 28.2788 27.739 29.099 27.8032 30.1157C27.8361 30.6371 27.6736 31.1434 27.3453 31.5441C27.2014 31.7198 27.1339 31.951 27.1905 32.171C27.2699 32.4805 27.5459 32.6874 27.8542 32.6874H31.3156V43.6515H31.3155ZM43.8015 43.6461C43.8015 44.0807 43.447 44.4342 43.0114 44.4342H33.4746C33.039 44.4342 32.6846 44.0807 32.6846 43.6461V32.6821H34.9945C34.8595 33.0921 34.8027 33.5284 34.8306 33.971C34.9378 35.6696 36.3 37.0399 37.9992 37.1583C38.0821 37.164 38.1647 37.1669 38.247 37.1669C39.1164 37.1669 39.9357 36.8454 40.5762 36.248C41.2665 35.6041 41.6624 34.6939 41.6624 33.7509C41.6624 33.3855 41.6035 33.0247 41.4905 32.6821H43.8014V43.6461H43.8015ZM48.1495 25.6368C48.0785 26.6526 47.2569 27.467 46.2385 27.5311C45.7532 27.5615 45.2926 27.4291 44.9035 27.1478C44.7415 27.0307 44.5381 26.9778 44.3429 27.0208C44.0185 27.0921 43.8014 27.3749 43.8014 27.6906V31.3131H40.3401C40.3399 31.3131 40.3377 31.3133 40.3339 31.3137C39.7894 31.3683 39.5035 31.9879 39.8155 32.4374L39.8157 32.4376C40.048 32.719 40.2113 33.0545 40.2672 33.4151C40.3756 34.1138 40.1432 34.7798 39.6424 35.2469C39.222 35.6391 38.6718 35.8329 38.0943 35.7926C37.0768 35.7217 36.261 34.9015 36.1968 33.8848C36.1634 33.3552 36.3315 32.8413 36.6702 32.4376C36.6703 32.4376 36.6784 32.4233 36.6925 32.3982C36.9481 31.9461 36.6641 31.3771 36.1488 31.3134C36.147 31.3132 36.146 31.313 36.1459 31.313H32.6845V29.3596C32.6845 28.995 32.4094 28.6767 32.0455 28.6531C31.6468 28.6273 31.3155 28.943 31.3155 29.3361V31.3184H29.0055C29.1405 30.9083 29.1973 30.472 29.1694 30.0294C29.0622 28.3309 27.7 26.9606 26.0009 26.8422C25.0401 26.7754 24.1249 27.0985 23.4238 27.7524C22.7335 28.3962 22.3376 29.3064 22.3376 30.2495C22.3376 30.6149 22.3965 30.9757 22.5095 31.3183H20.1986V20.3544C20.1986 19.9198 20.553 19.5662 20.9887 19.5662H30.5255C30.9611 19.5662 31.3155 19.9198 31.3155 20.3544V20.3546C31.3155 20.3546 31.3155 20.3549 31.3155 20.3549V23.1239C31.3155 23.4884 31.5906 23.8068 31.9545 23.8304C32.3532 23.8562 32.6846 23.5405 32.6846 23.1473V20.3549C32.6846 20.3549 32.6846 20.3547 32.6846 20.3546C32.6846 20.3546 32.6846 20.3544 32.6846 20.3544C32.6846 20.3531 32.6846 20.352 32.6846 20.3507C32.6846 20.3501 32.6846 20.3496 32.6846 20.349C32.6846 19.9144 33.039 19.5608 33.4746 19.5608H43.0114C43.447 19.5608 43.8015 19.9144 43.8015 20.349V23.2707C43.8015 23.4738 43.8834 23.672 44.0377 23.8041C44.2869 24.0175 44.6391 24.0233 44.8912 23.8382C45.2728 23.558 45.7316 23.4205 46.2105 23.4443C46.7128 23.4693 47.1929 23.6818 47.5495 24.0364C47.9779 24.4625 48.1916 25.0346 48.1495 25.6368Z" fill="white"/>
<path d="M32 26.9135C31.714 26.9135 31.4534 26.7293 31.3564 26.4607C31.262 26.1991 31.3397 25.8979 31.5487 25.7144C31.7726 25.5177 32.1083 25.4916 32.3612 25.648C32.5987 25.7949 32.7253 26.0829 32.6721 26.3572C32.6104 26.6759 32.3251 26.9135 32 26.9135Z" fill="white"/>
</g>
<defs>
<clipPath id="clip0">
<rect width="35.0476" height="35.0476" fill="white" transform="translate(14.4762 14.4763)"/>
</clipPath>
</defs>
</svg>
