<svg width="18" height="18" viewBox="0 0 18 18" fill="none" xmlns="http://www.w3.org/2000/svg">
<path d="M15.7245 1H9.46232C9.33416 1 9.21116 1.05099 9.12052 1.14163L1.5193 8.74259C0.826899 9.43525 0.826899 10.5621 1.5193 11.2545L7.24624 16.9813C7.58061 17.3157 8.02665 17.4999 8.50201 17.5H8.50214C8.97763 17.5 9.42367 17.3157 9.75816 16.9812L17.3591 9.38011C17.4498 9.28947 17.5008 9.16647 17.5008 9.03831L17.5009 2.77608C17.5008 1.79677 16.7039 1 15.7245 1ZM16.5339 8.83815L9.07444 16.2976C8.92262 16.4496 8.7193 16.5332 8.50214 16.5332C8.28485 16.5332 8.08166 16.4496 7.92984 16.2977L2.2029 10.5709C1.88741 10.2554 1.88741 9.7418 2.2029 9.42619L9.66248 1.96685H15.7245C16.1708 1.96685 16.534 2.32992 16.534 2.77621L16.5339 8.83815Z" fill="#417AC9" stroke="#417AC9" stroke-width="0.5"/>
<path d="M12.3518 3.99121C11.9092 3.99121 11.4931 4.1637 11.1801 4.47667C10.8672 4.7895 10.6948 5.20561 10.6948 5.64822C10.6948 6.09084 10.8672 6.50694 11.1801 6.81992C11.4931 7.13289 11.9092 7.30524 12.3518 7.30524C12.7943 7.30524 13.2104 7.13289 13.5234 6.81992C13.8364 6.50694 14.0087 6.09084 14.0087 5.64822C14.0087 5.20561 13.8364 4.7895 13.5235 4.47667C13.2106 4.1637 12.7944 3.99121 12.3518 3.99121ZM12.7777 6.07408C12.664 6.18793 12.5126 6.25055 12.3518 6.25055C12.1909 6.25055 12.0397 6.18793 11.926 6.07408C11.8121 5.96037 11.7495 5.80904 11.7495 5.64822C11.7495 5.48741 11.8121 5.33607 11.926 5.22237C12.0397 5.10852 12.191 5.0459 12.3518 5.0459C12.5126 5.0459 12.6638 5.10852 12.7777 5.22237C12.8915 5.33607 12.9542 5.48741 12.9542 5.64822C12.9542 5.80904 12.8914 5.96037 12.7777 6.07408Z" fill="#417AC9"/>
</svg>
