<?xml version="1.0" encoding="UTF-8" standalone="no"?>
<svg
   xmlns:dc="http://purl.org/dc/elements/1.1/"
   xmlns:cc="http://creativecommons.org/ns#"
   xmlns:rdf="http://www.w3.org/1999/02/22-rdf-syntax-ns#"
   xmlns:svg="http://www.w3.org/2000/svg"
   xmlns="http://www.w3.org/2000/svg"
   xmlns:sodipodi="http://sodipodi.sourceforge.net/DTD/sodipodi-0.dtd"
   xmlns:inkscape="http://www.inkscape.org/namespaces/inkscape"
   width="26"
   height="26"
   viewBox="0 0 26 26"
   fill="none"
   id="svg2"
   version="1.1"
   inkscape:version="0.48.4 r9939"
   sodipodi:docname="ic-view-fullscreen.svg">
  <metadata
     id="metadata16">
    <rdf:RDF>
      <cc:Work
         rdf:about="">
        <dc:format>image/svg+xml</dc:format>
        <dc:type
           rdf:resource="http://purl.org/dc/dcmitype/StillImage" />
      </cc:Work>
    </rdf:RDF>
  </metadata>
  <defs
     id="defs14" />
  <sodipodi:namedview
     pagecolor="#ffffff"
     bordercolor="#666666"
     borderopacity="1"
     objecttolerance="10"
     gridtolerance="10"
     guidetolerance="10"
     inkscape:pageopacity="0"
     inkscape:pageshadow="2"
     inkscape:window-width="1366"
     inkscape:window-height="705"
     id="namedview12"
     showgrid="false"
     inkscape:zoom="9.0769231"
     inkscape:cx="-4.1864407"
     inkscape:cy="13"
     inkscape:window-x="-8"
     inkscape:window-y="-8"
     inkscape:window-maximized="1"
     inkscape:current-layer="svg2" />
  <path
     fill-rule="evenodd"
     clip-rule="evenodd"
     d="M1.9375 1C1.41973 1 1 1.41973 1 1.9375V10.0625C1 10.5803 1.41973 11 1.9375 11C2.45527 11 2.875 10.5803 2.875 10.0625V2.875H10.0625C10.5803 2.875 11 2.45527 11 1.9375C11 1.41973 10.5803 1 10.0625 1H1.9375Z"
     fill="white"
     id="path4"
     style="fill:#417ac9;fill-opacity:1" />
  <path
     d="M2.875 2.875V2.625H2.625V2.875H2.875ZM1.25 1.9375C1.25 1.5578 1.5578 1.25 1.9375 1.25V0.75C1.28166 0.75 0.75 1.28166 0.75 1.9375H1.25ZM1.25 10.0625V1.9375H0.75V10.0625H1.25ZM1.9375 10.75C1.5578 10.75 1.25 10.4422 1.25 10.0625H0.75C0.75 10.7183 1.28166 11.25 1.9375 11.25V10.75ZM2.625 10.0625C2.625 10.4422 2.3172 10.75 1.9375 10.75V11.25C2.59334 11.25 3.125 10.7183 3.125 10.0625H2.625ZM2.625 2.875V10.0625H3.125V2.875H2.625ZM10.0625 2.625H2.875V3.125H10.0625V2.625ZM10.75 1.9375C10.75 2.3172 10.4422 2.625 10.0625 2.625V3.125C10.7183 3.125 11.25 2.59334 11.25 1.9375H10.75ZM10.0625 1.25C10.4422 1.25 10.75 1.5578 10.75 1.9375H11.25C11.25 1.28166 10.7183 0.75 10.0625 0.75V1.25ZM1.9375 1.25H10.0625V0.75H1.9375V1.25Z"
     fill="white"
     id="path6"
     style="fill:#417ac9;fill-opacity:1" />
  <path
     fill-rule="evenodd"
     clip-rule="evenodd"
     d="M25 24.0625C25 24.5803 24.5803 25 24.0625 25H15.9375C15.4197 25 15 24.5803 15 24.0625C15 23.5447 15.4197 23.125 15.9375 23.125H23.125V15.9375C23.125 15.4197 23.5447 15 24.0625 15C24.5803 15 25 15.4197 25 15.9375V24.0625Z"
     fill="white"
     id="path8"
     style="fill:#417ac9;fill-opacity:1" />
  <path
     d="M23.125 23.125H23.375V23.375H23.125V23.125ZM24.0625 24.75C24.4422 24.75 24.75 24.4422 24.75 24.0625H25.25C25.25 24.7183 24.7183 25.25 24.0625 25.25V24.75ZM15.9375 24.75H24.0625V25.25H15.9375V24.75ZM15.25 24.0625C15.25 24.4422 15.5578 24.75 15.9375 24.75V25.25C15.2817 25.25 14.75 24.7183 14.75 24.0625H15.25ZM15.9375 23.375C15.5578 23.375 15.25 23.6828 15.25 24.0625H14.75C14.75 23.4067 15.2817 22.875 15.9375 22.875V23.375ZM23.125 23.375H15.9375V22.875H23.125V23.375ZM23.375 15.9375V23.125H22.875V15.9375H23.375ZM24.0625 15.25C23.6828 15.25 23.375 15.5578 23.375 15.9375H22.875C22.875 15.2817 23.4067 14.75 24.0625 14.75V15.25ZM24.75 15.9375C24.75 15.5578 24.4422 15.25 24.0625 15.25V14.75C24.7183 14.75 25.25 15.2817 25.25 15.9375H24.75ZM24.75 24.0625V15.9375H25.25V24.0625H24.75Z"
     fill="white"
     id="path10"
     style="fill:#417ac9;fill-opacity:1" />
</svg>
