<svg width="24" height="24" viewBox="0 0 24 24" fill="none" xmlns="http://www.w3.org/2000/svg">
<g clip-path="url(#clip0)">
<path d="M13.8621 0C19.4521 0 24 4.54786 24 10.1379C24 15.728 19.4521 20.2759 13.8621 20.2759C8.27198 20.2759 3.72412 15.728 3.72412 10.1379C3.72412 4.54786 8.27203 0 13.8621 0ZM13.8621 18.5025C18.4744 18.5025 22.2266 14.7502 22.2266 10.1379C22.2266 5.52562 18.4744 1.77342 13.8621 1.77342C9.25003 1.77342 5.49755 5.52562 5.49755 10.1379C5.49755 14.7502 9.24975 18.5025 13.8621 18.5025Z" fill="#417AC9"/>
<path d="M0.259801 22.4865L6.70318 16.0431C7.04959 15.6967 7.61059 15.6967 7.95699 16.0431C8.3034 16.3893 8.3034 16.9508 7.95699 17.2969L1.51361 23.7403C1.34041 23.9135 1.11372 24.0001 0.886706 24.0001C0.659691 24.0001 0.433004 23.9135 0.259801 23.7403C-0.0865574 23.3942 -0.0865574 22.8326 0.259801 22.4865Z" fill="#417AC9"/>
<rect width="1.39286" height="9.75" rx="0.69643" transform="matrix(-1 0 5.05763e-07 1 14.5713 5.25)" fill="#417AC9"/>
<rect width="1.39286" height="9.75" rx="0.696428" transform="matrix(0 -1 -1 5.05762e-07 18.75 10.8214)" fill="#417AC9"/>
</g>
<defs>
<clipPath id="clip0">
<rect width="24" height="24" fill="white" transform="matrix(-1 0 0 1 24 0)"/>
</clipPath>
</defs>
</svg>
