<svg width="440" height="317" viewBox="0 0 440 317" fill="none" xmlns="http://www.w3.org/2000/svg">
<g opacity="0.4">
<mask id="path-1-inside-1" fill="white">
<path fill-rule="evenodd" clip-rule="evenodd" d="M23.906 172.545C22.02 174.433 22.02 177.495 23.906 179.383L40.978 196.476L23.9016 213.573C22.0157 215.461 22.0157 218.523 23.9016 220.411C25.7875 222.299 28.8452 222.299 30.7312 220.411L47.8076 203.314L64.8835 220.411C66.7694 222.299 69.8271 222.299 71.713 220.411C73.599 218.522 73.599 215.461 71.713 213.573L54.6372 196.476L71.7086 179.383C73.5946 177.495 73.5946 174.434 71.7086 172.545C69.8227 170.657 66.765 170.657 64.8791 172.545L47.8076 189.638L30.7356 172.545C28.8496 170.657 25.7919 170.657 23.906 172.545Z"/>
</mask>
<path d="M23.906 172.545L26.7327 175.375L23.906 172.545ZM40.978 196.476L43.8047 199.306L46.6314 196.476L43.8047 193.646L40.978 196.476ZM23.9016 220.411L21.0749 223.241L23.9016 220.411ZM47.8076 203.314L50.6343 200.484L47.8076 197.653L44.9809 200.484L47.8076 203.314ZM54.6372 196.476L51.8105 193.646L48.9838 196.476L51.8105 199.306L54.6372 196.476ZM47.8076 189.638L44.9809 192.468L47.8076 195.298L50.6343 192.468L47.8076 189.638ZM26.7327 176.553C26.4079 176.227 26.4079 175.7 26.7327 175.375L21.0793 169.715C17.6322 173.166 17.6322 178.762 21.0793 182.213L26.7327 176.553ZM43.8047 193.646L26.7327 176.553L21.0793 182.213L38.1513 199.306L43.8047 193.646ZM26.7283 216.403L43.8047 199.306L38.1513 193.646L21.0749 210.743L26.7283 216.403ZM26.7283 217.581C26.4035 217.256 26.4035 216.729 26.7283 216.403L21.0749 210.743C17.6278 214.194 17.6278 219.79 21.0749 223.241L26.7283 217.581ZM27.9045 217.581C27.5797 217.906 27.0531 217.906 26.7283 217.581L21.0749 223.241C24.522 226.693 30.1108 226.693 33.5579 223.241L27.9045 217.581ZM44.9809 200.484L27.9045 217.581L33.5579 223.241L50.6343 206.144L44.9809 200.484ZM67.7101 217.581L50.6343 200.484L44.9809 206.144L62.0568 223.241L67.7101 217.581ZM68.8863 217.581C68.5615 217.906 68.0349 217.906 67.7101 217.581L62.0568 223.241C65.5038 226.692 71.0926 226.692 74.5397 223.241L68.8863 217.581ZM68.8863 216.403C69.2111 216.728 69.2111 217.255 68.8863 217.581L74.5397 223.241C77.9868 219.79 77.9868 214.194 74.5397 210.743L68.8863 216.403ZM51.8105 199.306L68.8863 216.403L74.5397 210.743L57.4638 193.646L51.8105 199.306ZM68.882 176.553L51.8105 193.646L57.4638 199.306L74.5353 182.214L68.882 176.553ZM68.882 175.376C69.2068 175.701 69.2068 176.228 68.882 176.553L74.5353 182.214C77.9824 178.762 77.9824 173.167 74.5353 169.715L68.882 175.376ZM67.7058 175.376C68.0306 175.05 68.5572 175.05 68.882 175.376L74.5353 169.715C71.0883 166.264 65.4995 166.264 62.0524 169.715L67.7058 175.376ZM50.6343 192.468L67.7058 175.376L62.0524 169.715L44.9809 186.808L50.6343 192.468ZM27.9089 175.375L44.9809 192.468L50.6343 186.808L33.5622 169.715L27.9089 175.375ZM26.7327 175.375C27.0575 175.05 27.5841 175.05 27.9089 175.375L33.5622 169.715C30.1152 166.263 24.5264 166.263 21.0793 169.715L26.7327 175.375Z" fill="#FF6489" mask="url(#path-1-inside-1)"/>
</g>
<g opacity="0.6">
<mask id="path-3-inside-2" fill="white">
<path fill-rule="evenodd" clip-rule="evenodd" d="M85.8015 11.9653C84.8585 12.9094 84.8585 14.4402 85.8015 15.3843L94.3379 23.9312L85.7998 32.4797C84.8568 33.4239 84.8568 34.9546 85.7998 35.8987C86.7428 36.8428 88.2716 36.8428 89.2146 35.8987L97.7527 27.3501L106.29 35.8982C107.233 36.8423 108.762 36.8423 109.705 35.8982C110.648 34.9541 110.648 33.4233 109.705 32.4792L101.167 23.9312L109.703 15.3848C110.646 14.4407 110.646 12.9099 109.703 11.9658C108.76 11.0217 107.232 11.0217 106.289 11.9658L97.7527 20.5122L89.2163 11.9653C88.2733 11.0212 86.7445 11.0212 85.8015 11.9653Z"/>
</mask>
<path d="M85.8015 11.9653L84.3882 10.5502L85.8015 11.9653ZM94.3379 23.9312L95.7512 25.3462L97.1646 23.9312L95.7512 22.5161L94.3379 23.9312ZM85.7998 35.8987L84.3865 37.3138L85.7998 35.8987ZM97.7527 27.3501L99.166 25.9351L97.7527 24.52L96.3393 25.9351L97.7527 27.3501ZM106.29 35.8982L104.877 37.3133L106.29 35.8982ZM101.167 23.9312L99.7541 22.5161L98.3408 23.9312L99.7541 25.3462L101.167 23.9312ZM97.7527 20.5122L96.3393 21.9273L97.7527 23.3423L99.166 21.9273L97.7527 20.5122ZM89.2163 11.9653L87.8029 13.3804L89.2163 11.9653ZM87.2148 13.9692C87.0524 13.8066 87.0524 13.543 87.2148 13.3804L84.3882 10.5502C82.6646 12.2759 82.6646 15.0737 84.3882 16.7994L87.2148 13.9692ZM95.7512 22.5161L87.2148 13.9692L84.3882 16.7994L92.9245 25.3462L95.7512 22.5161ZM87.2131 33.8948L95.7512 25.3462L92.9245 22.5161L84.3865 31.0646L87.2131 33.8948ZM87.2131 34.4836C87.0507 34.321 87.0507 34.0574 87.2131 33.8948L84.3865 31.0646C82.6629 32.7903 82.6629 35.5881 84.3865 37.3138L87.2131 34.4836ZM87.8012 34.4836C87.6388 34.6462 87.3755 34.6462 87.2131 34.4836L84.3865 37.3138C86.11 39.0394 88.9044 39.0394 90.6279 37.3138L87.8012 34.4836ZM96.3393 25.9351L87.8012 34.4836L90.6279 37.3138L99.166 28.7652L96.3393 25.9351ZM107.704 34.4831L99.166 25.9351L96.3393 28.7652L104.877 37.3133L107.704 34.4831ZM108.292 34.4831C108.129 34.6457 107.866 34.6457 107.704 34.4831L104.877 37.3133C106.6 39.0389 109.395 39.0389 111.118 37.3133L108.292 34.4831ZM108.292 33.8943C108.454 34.0569 108.454 34.3205 108.292 34.4831L111.118 37.3133C112.842 35.5876 112.842 32.7898 111.118 31.0641L108.292 33.8943ZM99.7541 25.3462L108.292 33.8943L111.118 31.0641L102.581 22.5161L99.7541 25.3462ZM108.29 13.9697L99.7541 22.5161L102.581 25.3462L111.117 16.7999L108.29 13.9697ZM108.29 13.3809C108.452 13.5435 108.452 13.8071 108.29 13.9697L111.117 16.7999C112.84 15.0742 112.84 12.2764 111.117 10.5507L108.29 13.3809ZM107.702 13.3809C107.864 13.2183 108.128 13.2183 108.29 13.3809L111.117 10.5507C109.393 8.82508 106.599 8.82508 104.875 10.5507L107.702 13.3809ZM99.166 21.9273L107.702 13.3809L104.875 10.5507L96.3393 19.0971L99.166 21.9273ZM87.8029 13.3804L96.3393 21.9273L99.166 19.0971L90.6296 10.5502L87.8029 13.3804ZM87.2148 13.3804C87.3772 13.2178 87.6405 13.2178 87.8029 13.3804L90.6296 10.5502C88.9061 8.82457 86.1117 8.82457 84.3882 10.5502L87.2148 13.3804Z" fill="#FF6489" mask="url(#path-3-inside-2)"/>
</g>
<g opacity="0.8">
<mask id="path-5-inside-3" fill="white">
<path fill-rule="evenodd" clip-rule="evenodd" d="M404.146 61.9654C403.203 62.9096 403.203 64.4403 404.146 65.3844L412.682 73.9312L404.144 82.4796C403.201 83.4237 403.201 84.9545 404.144 85.8986C405.087 86.8427 406.616 86.8427 407.559 85.8986L416.097 77.3501L424.635 85.8983C425.578 86.8425 427.107 86.8425 428.05 85.8983C428.993 84.9542 428.993 83.4235 428.05 82.4793L419.512 73.9312L428.048 65.3847C428.991 64.4405 428.991 62.9098 428.048 61.9657C427.105 61.0216 425.576 61.0216 424.633 61.9657L416.097 70.5122L407.561 61.9654C406.618 61.0213 405.089 61.0213 404.146 61.9654Z"/>
</mask>
<path d="M404.146 61.9654L402.733 60.5503L404.146 61.9654ZM412.682 73.9312L414.096 75.3462L415.509 73.9312L414.096 72.5161L412.682 73.9312ZM404.144 82.4796L405.558 83.8947L404.144 82.4796ZM404.144 85.8986L405.558 84.4835L404.144 85.8986ZM416.097 77.3501L417.51 75.9351L416.097 74.52L414.684 75.9351L416.097 77.3501ZM424.635 85.8983L426.048 84.4832L424.635 85.8983ZM419.512 73.9312L418.099 72.5161L416.685 73.9312L418.099 75.3462L419.512 73.9312ZM424.633 61.9657L426.046 63.3808L424.633 61.9657ZM416.097 70.5122L414.684 71.9273L416.097 73.3423L417.51 71.9273L416.097 70.5122ZM405.559 63.9693C405.397 63.8067 405.397 63.5431 405.559 63.3805L402.733 60.5503C401.009 62.276 401.009 65.0738 402.733 66.7995L405.559 63.9693ZM414.096 72.5161L405.559 63.9693L402.733 66.7995L411.269 75.3462L414.096 72.5161ZM405.558 83.8947L414.096 75.3462L411.269 72.5161L402.731 81.0645L405.558 83.8947ZM405.558 84.4835C405.395 84.3209 405.395 84.0573 405.558 83.8947L402.731 81.0645C401.008 82.7902 401.008 85.588 402.731 87.3137L405.558 84.4835ZM406.146 84.4835C405.983 84.6461 405.72 84.6461 405.558 84.4835L402.731 87.3137C404.455 89.0393 407.249 89.0393 408.973 87.3137L406.146 84.4835ZM414.684 75.9351L406.146 84.4835L408.973 87.3137L417.51 78.7652L414.684 75.9351ZM426.048 84.4832L417.51 75.9351L414.684 78.7652L423.221 87.3134L426.048 84.4832ZM426.636 84.4832C426.474 84.6458 426.211 84.6458 426.048 84.4832L423.221 87.3134C424.945 89.0391 427.739 89.0391 429.463 87.3134L426.636 84.4832ZM426.636 83.8944C426.799 84.057 426.799 84.3207 426.636 84.4832L429.463 87.3134C431.187 85.5878 431.187 82.7899 429.463 81.0643L426.636 83.8944ZM418.099 75.3462L426.636 83.8944L429.463 81.0643L420.925 72.5161L418.099 75.3462ZM426.635 63.9696L418.099 72.5161L420.925 75.3462L429.461 66.7998L426.635 63.9696ZM426.635 63.3808C426.797 63.5434 426.797 63.807 426.635 63.9696L429.461 66.7998C431.185 65.0741 431.185 62.2763 429.461 60.5506L426.635 63.3808ZM426.046 63.3808C426.209 63.2182 426.472 63.2182 426.635 63.3808L429.461 60.5506C427.738 58.825 424.943 58.825 423.22 60.5506L426.046 63.3808ZM417.51 71.9273L426.046 63.3808L423.22 60.5506L414.684 69.0971L417.51 71.9273ZM406.148 63.3805L414.684 71.9273L417.51 69.0971L408.974 60.5503L406.148 63.3805ZM405.559 63.3805C405.722 63.2179 405.985 63.2179 406.148 63.3805L408.974 60.5503C407.251 58.8247 404.456 58.8247 402.733 60.5503L405.559 63.3805Z" fill="#FF6489" mask="url(#path-5-inside-3)"/>
</g>
<g opacity="0.4" clip-path="url(#clip0)">
<path d="M61.3737 105.385H59.7825C58.4956 105.385 57.4485 104.336 57.4485 103.048V102.509C56.9014 102.334 56.3698 102.113 55.8591 101.848L55.4776 102.23C54.5536 103.157 53.0736 103.129 52.1765 102.23L51.0518 101.104C50.1531 100.205 50.1273 98.7238 51.0521 97.7988L51.4333 97.4171C51.169 96.9058 50.9484 96.3737 50.7736 95.8258H50.2353C48.9484 95.8258 47.9014 94.7774 47.9014 93.4889V91.8957C47.9014 90.6072 48.9484 89.5589 50.2354 89.5589H50.7736C50.9485 89.0111 51.1691 88.4789 51.4334 87.9676L51.0519 87.5857C50.1276 86.6612 50.1531 85.1797 51.0522 84.2804L52.1769 83.1544C53.0761 82.2528 54.5558 82.2303 55.478 83.1547L55.8592 83.5363C56.3698 83.2717 56.9014 83.0508 57.4486 82.8758V82.3368C57.4486 81.0483 58.4956 80 59.7826 80H61.3737C62.6607 80 63.7077 81.0483 63.7077 82.3368V82.8758C64.2548 83.0508 64.7864 83.2717 65.2971 83.5364L65.6786 83.1544C66.6026 82.2281 68.0826 82.2553 68.9797 83.1547L70.1044 84.2807C71.0031 85.1795 71.0289 86.6609 70.1041 87.5859L69.7229 87.9676C69.9872 88.4789 70.2078 89.011 70.3826 89.5589H70.9209C72.2078 89.5589 73.2549 90.6072 73.2549 91.8957V93.4889C73.2549 94.7774 72.2078 95.8258 70.9209 95.8258H70.3826C70.2078 96.3736 69.9872 96.9058 69.7229 97.4171L70.1044 97.7991C71.0287 98.7235 71.0032 100.205 70.1041 101.104L68.9793 102.23C68.0801 103.132 66.6004 103.154 65.6782 102.23L65.2971 101.848C64.7864 102.113 64.2548 102.334 63.7077 102.509V103.048C63.7077 104.336 62.6607 105.385 61.3737 105.385V105.385ZM56.1074 100.286C56.8169 100.707 57.5805 101.024 58.3769 101.23C58.7049 101.314 58.9341 101.611 58.9341 101.95V103.048C58.9341 103.516 59.3148 103.897 59.7826 103.897H61.3737C61.8415 103.897 62.2222 103.516 62.2222 103.048V101.95C62.2222 101.611 62.4514 101.314 62.7794 101.23C63.5758 101.024 64.3394 100.707 65.0489 100.286C65.3408 100.114 65.7124 100.161 65.9522 100.401L66.7291 101.179C67.064 101.514 67.6019 101.507 67.9286 101.179L69.054 100.052C69.38 99.7262 69.3908 99.1876 69.0543 98.8511L68.2771 98.0729C68.0374 97.8329 67.9904 97.4607 68.163 97.1685C68.5826 96.4582 68.8995 95.6937 69.105 94.8962C69.1897 94.5678 69.4855 94.3384 69.8242 94.3384H70.9209C71.3887 94.3384 71.7694 93.9574 71.7694 93.489V91.8958C71.7694 91.4274 71.3887 91.0463 70.9209 91.0463H69.8242C69.4855 91.0463 69.1897 90.8169 69.105 90.4885C68.8995 89.691 68.5825 88.9265 68.163 88.2163C67.9904 87.924 68.0374 87.5519 68.2771 87.3118L69.054 86.534C69.3899 86.1981 69.3811 85.6597 69.0543 85.3329L67.929 84.2062C67.6028 83.8792 67.0649 83.8696 66.7294 84.2059L65.9523 84.9841C65.7125 85.2242 65.3407 85.2712 65.0489 85.0984C64.3395 84.6783 63.5759 84.3609 62.7794 84.1551C62.4514 84.0704 62.2222 83.7742 62.2222 83.435V82.3368C62.2222 81.8685 61.8416 81.4874 61.3738 81.4874H59.7826C59.3148 81.4874 58.9342 81.8685 58.9342 82.3368V83.4349C58.9342 83.7741 58.705 84.0703 58.377 84.155C57.5805 84.3608 56.8169 84.6782 56.1075 85.0983C55.8155 85.271 55.4439 85.224 55.2041 84.984L54.4273 84.2061C54.0923 83.8704 53.5544 83.8782 53.2277 84.2058L52.1023 85.3325C51.7764 85.6585 51.7655 86.197 52.102 86.5336L52.8792 87.3117C53.119 87.5518 53.1659 87.9239 52.9934 88.2162C52.5738 88.9264 52.2569 89.6909 52.0513 90.4884C51.9666 90.8168 51.6708 91.0462 51.3321 91.0462H50.2354C49.7676 91.0463 49.3869 91.4274 49.3869 91.8957V93.4889C49.3869 93.9573 49.7676 94.3384 50.2354 94.3384H51.3321C51.6708 94.3384 51.9666 94.5678 52.0513 94.8962C52.2568 95.6937 52.5738 96.4582 52.9933 97.1685C53.1659 97.4607 53.1189 97.8328 52.8792 98.0729L52.1023 98.8507C51.7664 99.1866 51.7752 99.725 52.102 100.052L53.2273 101.178C53.5535 101.506 54.0914 101.515 54.4269 101.179L55.204 100.401C55.3807 100.224 55.7483 100.074 56.1074 100.286V100.286Z" fill="#417AC9"/>
<path d="M60.5789 98.2155C57.5371 98.2155 55.0625 95.7378 55.0625 92.6923C55.0625 89.6469 57.5371 87.1692 60.5789 87.1692C63.6206 87.1692 66.0952 89.6469 66.0952 92.6923C66.0952 95.7378 63.6206 98.2155 60.5789 98.2155V98.2155ZM60.5789 88.6566C58.3562 88.6566 56.5481 90.467 56.5481 92.6923C56.5481 94.9177 58.3563 96.7281 60.5789 96.7281C62.8015 96.7281 64.6097 94.9177 64.6097 92.6923C64.6097 90.467 62.8015 88.6566 60.5789 88.6566V88.6566Z" fill="#417AC9"/>
</g>
<g clip-path="url(#clip1)">
<path d="M213.56 81.8008H138.714C136.675 81.8008 135.023 83.456 135.023 85.4998C135.023 87.5432 136.675 89.1984 138.714 89.1984H213.56C215.6 89.1984 217.251 87.5432 217.251 85.4998C217.251 83.456 215.6 81.8008 213.56 81.8008Z" fill="#417AC9" fill-opacity="0.5"/>
<path d="M307.115 96.7431C313.314 96.7431 318.339 91.7078 318.339 85.4965C318.339 79.2852 313.314 74.2499 307.115 74.2499C300.917 74.2499 295.892 79.2852 295.892 85.4965C295.892 91.7078 300.917 96.7431 307.115 96.7431Z" fill="#417AC9" fill-opacity="0.5"/>
<path d="M333.314 47.9999H123.746C115.478 47.9999 108.776 54.7154 108.776 62.9999V108C108.776 116.284 115.478 123 123.746 123H333.314C341.581 123 348.284 116.284 348.284 108V62.9999C348.284 54.7154 341.581 47.9999 333.314 47.9999ZM340.799 108C340.799 112.135 337.441 115.5 333.314 115.5H123.746C119.619 115.5 116.261 112.135 116.261 108V62.9999C116.261 58.864 119.619 55.4999 123.746 55.4999H333.314C337.441 55.4999 340.799 58.864 340.799 62.9999V108Z" fill="#417AC9" fill-opacity="0.5"/>
<path d="M213.56 164.301H138.714C136.675 164.301 135.023 165.956 135.023 168C135.023 170.043 136.675 171.698 138.714 171.698H213.56C215.6 171.698 217.251 170.043 217.251 168C217.251 165.956 215.6 164.301 213.56 164.301Z" fill="#417AC9" fill-opacity="0.5"/>
<path d="M307.115 179.243C313.314 179.243 318.339 174.208 318.339 167.996C318.339 161.785 313.314 156.75 307.115 156.75C300.917 156.75 295.892 161.785 295.892 167.996C295.892 174.208 300.917 179.243 307.115 179.243Z" fill="#417AC9" fill-opacity="0.5"/>
<path d="M333.314 130.5H123.746C115.478 130.5 108.776 137.215 108.776 145.5V190.5C108.776 198.784 115.478 205.5 123.746 205.5H333.314C341.581 205.5 348.284 198.784 348.284 190.5V145.5C348.284 137.215 341.581 130.5 333.314 130.5ZM340.799 190.5C340.799 194.635 337.441 198 333.314 198H123.746C119.619 198 116.261 194.635 116.261 190.5V145.5C116.261 141.364 119.619 138 123.746 138H333.314C337.441 138 340.799 141.364 340.799 145.5V190.5Z" fill="#417AC9" fill-opacity="0.5"/>
<path d="M213.56 246.801H138.714C136.675 246.801 135.023 248.456 135.023 250.5C135.023 252.543 136.675 254.198 138.714 254.198H213.56C215.6 254.198 217.251 252.543 217.251 250.5C217.251 248.456 215.6 246.801 213.56 246.801Z" fill="#417AC9" fill-opacity="0.5"/>
<path d="M307.115 261.743C313.314 261.743 318.339 256.708 318.339 250.497C318.339 244.285 313.314 239.25 307.115 239.25C300.917 239.25 295.892 244.285 295.892 250.497C295.892 256.708 300.917 261.743 307.115 261.743Z" fill="#417AC9" fill-opacity="0.5"/>
<path d="M333.314 213H123.746C115.478 213 108.776 219.715 108.776 228V273C108.776 281.284 115.478 288 123.746 288H333.314C341.581 288 348.284 281.284 348.284 273V228C348.284 219.715 341.581 213 333.314 213ZM340.799 273C340.799 277.135 337.441 280.5 333.314 280.5H123.746C119.619 280.5 116.261 277.135 116.261 273V228C116.261 223.864 119.619 220.5 123.746 220.5H333.314C337.441 220.5 340.799 223.864 340.799 228V273Z" fill="#417AC9" fill-opacity="0.5"/>
</g>
<g opacity="0.3" clip-path="url(#clip2)">
<path d="M398.181 156.846H396.059C394.343 156.846 392.947 155.448 392.947 153.73V153.012C392.218 152.778 391.509 152.484 390.828 152.131L390.319 152.64C389.087 153.875 387.114 153.839 385.918 152.64L384.418 151.139C383.22 149.94 383.186 147.965 384.419 146.732L384.927 146.223C384.575 145.541 384.281 144.832 384.047 144.101H383.33C381.614 144.101 380.218 142.703 380.218 140.985V138.861C380.218 137.143 381.614 135.745 383.33 135.745H384.047C384.281 135.015 384.575 134.305 384.927 133.623L384.418 133.114C383.186 131.882 383.22 129.906 384.419 128.707L385.918 127.206C387.117 126.004 389.09 125.974 390.32 127.206L390.828 127.715C391.509 127.362 392.218 127.068 392.947 126.834V126.116C392.947 124.398 394.343 123 396.059 123H398.181C399.897 123 401.293 124.398 401.293 126.116V126.834C402.022 127.068 402.731 127.362 403.412 127.715L403.921 127.206C405.153 125.971 407.126 126.007 408.322 127.206L409.822 128.708C411.02 129.906 411.055 131.881 409.821 133.115L409.313 133.623C409.665 134.305 409.96 135.015 410.193 135.745H410.91C412.626 135.745 414.022 137.143 414.022 138.861V140.985C414.022 142.703 412.626 144.101 410.91 144.101H410.193C409.96 144.831 409.665 145.541 409.313 146.223L409.822 146.732C411.054 147.965 411.02 149.94 409.821 151.139L408.322 152.64C407.123 153.843 405.15 153.873 403.92 152.64L403.412 152.131C402.731 152.484 402.022 152.779 401.293 153.012V153.731C401.293 155.448 399.897 156.846 398.181 156.846V156.846ZM391.159 150.049C392.105 150.609 393.123 151.032 394.185 151.306C394.623 151.419 394.928 151.814 394.928 152.266V153.73C394.928 154.355 395.436 154.863 396.059 154.863H398.181C398.805 154.863 399.312 154.355 399.312 153.73V152.266C399.312 151.814 399.618 151.419 400.055 151.306C401.117 151.032 402.135 150.609 403.081 150.049C403.47 149.818 403.966 149.881 404.286 150.201L405.321 151.238C405.768 151.686 406.485 151.675 406.921 151.239L408.421 149.736C408.856 149.302 408.87 148.583 408.422 148.135L407.385 147.097C407.066 146.777 407.003 146.281 407.233 145.891C407.793 144.944 408.215 143.925 408.489 142.862C408.602 142.424 408.997 142.118 409.448 142.118H410.911C411.534 142.118 412.042 141.61 412.042 140.985V138.861C412.042 138.237 411.534 137.728 410.911 137.728H409.448C408.997 137.728 408.602 137.423 408.489 136.985C408.215 135.921 407.793 134.902 407.233 133.955C407.003 133.565 407.066 133.069 407.385 132.749L408.421 131.712C408.869 131.264 408.857 130.546 408.422 130.111L406.921 128.608C406.486 128.172 405.769 128.16 405.322 128.608L404.286 129.645C403.966 129.966 403.47 130.028 403.081 129.798C402.135 129.238 401.117 128.815 400.055 128.54C399.618 128.427 399.312 128.032 399.312 127.58V126.116C399.312 125.491 398.805 124.983 398.181 124.983H396.059C395.436 124.983 394.928 125.491 394.928 126.116V127.58C394.928 128.032 394.623 128.427 394.185 128.54C393.123 128.814 392.105 129.238 391.159 129.798C390.77 130.028 390.274 129.965 389.955 129.645L388.919 128.608C388.472 128.16 387.755 128.171 387.32 128.608L385.819 130.11C385.384 130.545 385.37 131.263 385.819 131.711L386.855 132.749C387.175 133.069 387.237 133.565 387.007 133.955C386.448 134.902 386.025 135.921 385.751 136.985C385.638 137.422 385.244 137.728 384.792 137.728H383.33C382.706 137.728 382.199 138.236 382.199 138.861V140.985C382.199 141.61 382.706 142.118 383.33 142.118H384.792C385.244 142.118 385.638 142.424 385.751 142.862C386.025 143.925 386.448 144.944 387.007 145.891C387.237 146.281 387.175 146.777 386.855 147.097L385.819 148.134C385.371 148.582 385.383 149.3 385.819 149.736L387.319 151.238C387.754 151.674 388.471 151.687 388.918 151.238L389.955 150.201C390.19 149.965 390.68 149.765 391.159 150.049V150.049Z" fill="#417AC9"/>
<path d="M397.121 147.287C393.065 147.287 389.766 143.984 389.766 139.923C389.766 135.863 393.065 132.559 397.121 132.559C401.176 132.559 404.476 135.863 404.476 139.923C404.476 143.984 401.176 147.287 397.121 147.287V147.287ZM397.121 134.542C394.157 134.542 391.746 136.956 391.746 139.923C391.746 142.89 394.157 145.304 397.121 145.304C400.084 145.304 402.495 142.89 402.495 139.923C402.495 136.956 400.084 134.542 397.121 134.542V134.542Z" fill="#417AC9"/>
</g>
<g clip-path="url(#clip3)">
<path d="M416.914 294.878L368.862 209.471C364.765 202.012 353.59 202.012 349.492 209.471L301.44 294.878C297.343 302.337 302.558 311.661 311.125 311.661H406.857C415.797 311.288 421.012 302.337 416.914 294.878Z" fill="#FF6489"/>
<path d="M359.177 215.065L407.229 300.472H311.125L359.177 215.065Z" fill="#FF6489"/>
<path d="M351.354 254.226L354.334 273.993C354.707 276.23 356.569 278.095 359.177 278.095C361.412 278.095 363.647 276.23 364.019 273.993L367 254.226C367.744 249.378 364.019 245.275 359.177 245.275C354.334 245.275 350.982 249.378 351.354 254.226Z" fill="white"/>
<path d="M359.177 291.149C361.646 291.149 363.647 289.145 363.647 286.673C363.647 284.201 361.646 282.198 359.177 282.198C356.708 282.198 354.707 284.201 354.707 286.673C354.707 289.145 356.708 291.149 359.177 291.149Z" fill="white"/>
</g>
<defs>
<clipPath id="clip0">
<rect width="25.3535" height="25.3847" fill="white" transform="translate(47.9014 80)"/>
</clipPath>
<clipPath id="clip1">
<rect width="239.507" height="240" fill="white" transform="translate(108.776 47.9999)"/>
</clipPath>
<clipPath id="clip2">
<rect width="33.8047" height="33.8462" fill="white" transform="translate(380.218 123)"/>
</clipPath>
<clipPath id="clip3">
<rect width="118.316" height="118.462" fill="white" transform="translate(300.017 198.538)"/>
</clipPath>
</defs>
</svg>
