<svg width="15" height="16" viewBox="0 0 15 16" fill="none" xmlns="http://www.w3.org/2000/svg">
<path d="M1.59855 7.61582L8.07396 1.15832C8.28612 0.946868 8.62961 0.947224 8.84141 1.15941C9.05305 1.37157 9.05251 1.71525 8.84032 1.92686L2.75034 8.00003L8.84054 14.0732C9.0527 14.2848 9.05324 14.6283 8.84163 14.8404C8.73546 14.9468 8.59636 15 8.45726 15C8.31852 15 8.17997 14.9472 8.07399 14.8415L1.59855 8.3842C1.49636 8.28254 1.43902 8.14418 1.43902 8.00003C1.43902 7.85587 1.49653 7.71768 1.59855 7.61582Z" fill="#417AC9" stroke="#417AC9"/>
<rect width="14" height="2" rx="1" transform="matrix(-1 0 0 1 15 7)" fill="#417AC9"/>
</svg>
