<svg width="40" height="40" viewBox="0 0 40 40" fill="none" xmlns="http://www.w3.org/2000/svg">
<rect x="1" y="1" width="38" height="38" rx="3" stroke="white" stroke-width="2"/>
<g clip-path="url(#clip0)">
<path d="M29.9804 15.8801C29.9336 14.8174 29.7617 14.0868 29.5156 13.4537C29.2616 12.7818 28.8709 12.1801 28.359 11.68C27.8589 11.1721 27.2533 10.7774 26.5891 10.5274C25.9524 10.2813 25.2256 10.1094 24.163 10.0626C23.0923 10.0118 22.7525 10 20.0371 10C17.3217 10 16.9818 10.0118 15.9152 10.0586C14.8525 10.1055 14.1219 10.2775 13.489 10.5235C12.8169 10.7774 12.2153 11.1681 11.7152 11.68C11.2073 12.1801 10.8127 12.7857 10.5626 13.4499C10.3164 14.0868 10.1446 14.8134 10.0977 15.8761C10.0469 16.9467 10.0352 17.2866 10.0352 20.002C10.0352 22.7173 10.0469 23.0572 10.0938 24.1239C10.1406 25.1865 10.3126 25.9171 10.5588 26.5502C10.8127 27.2221 11.2073 27.8238 11.7152 28.3239C12.2153 28.8318 12.8209 29.2265 13.4851 29.4765C14.1219 29.7226 14.8486 29.8945 15.9114 29.9413C16.9779 29.9883 17.3179 29.9999 20.0333 29.9999C22.7487 29.9999 23.0885 29.9883 24.1552 29.9413C25.2179 29.8945 25.9484 29.7226 26.5813 29.4765C27.9254 28.9568 28.9881 27.8941 29.5078 26.5502C29.7538 25.9133 29.9258 25.1865 29.9727 24.1239C30.0195 23.0572 30.0313 22.7173 30.0313 20.002C30.0313 17.2866 30.0273 16.9467 29.9804 15.8801ZM28.1794 24.0457C28.1364 25.0225 27.9723 25.5499 27.8355 25.9015C27.4995 26.7728 26.808 27.4643 25.9367 27.8004C25.585 27.9372 25.0538 28.1012 24.0809 28.1441C23.026 28.1911 22.7096 28.2027 20.0411 28.2027C17.3725 28.2027 17.0522 28.1911 16.0011 28.1441C15.0244 28.1012 14.4969 27.9372 14.1453 27.8004C13.7117 27.6402 13.317 27.3862 12.9967 27.0541C12.6646 26.7298 12.4106 26.3391 12.2504 25.9055C12.1137 25.5539 11.9496 25.0225 11.9067 24.0497C11.8597 22.9948 11.8481 22.6783 11.8481 20.0097C11.8481 17.3412 11.8597 17.0209 11.9067 15.9699C11.9496 14.9932 12.1137 14.4657 12.2504 14.1141C12.4106 13.6804 12.6646 13.2859 13.0007 12.9654C13.3248 12.6333 13.7155 12.3793 14.1493 12.2192C14.5009 12.0825 15.0323 11.9184 16.0051 11.8754C17.06 11.8285 17.3765 11.8168 20.0449 11.8168C22.7174 11.8168 23.0337 11.8285 24.0848 11.8754C25.0616 11.9184 25.589 12.0825 25.9406 12.2192C26.3742 12.3793 26.7689 12.6333 27.0892 12.9654C27.4213 13.2897 27.6753 13.6804 27.8355 14.1141C27.9723 14.4657 28.1364 14.997 28.1794 15.9699C28.2262 17.0248 28.238 17.3412 28.238 20.0097C28.238 22.6783 28.2262 22.9908 28.1794 24.0457Z" fill="white"/>
<path d="M20.037 14.8643C17.2006 14.8643 14.8993 17.1654 14.8993 20.002C14.8993 22.8385 17.2006 25.1397 20.037 25.1397C22.8736 25.1397 25.1747 22.8385 25.1747 20.002C25.1747 17.1654 22.8736 14.8643 20.037 14.8643ZM20.037 23.3347C18.1969 23.3347 16.7043 21.8422 16.7043 20.002C16.7043 18.1617 18.1969 16.6693 20.037 16.6693C21.8773 16.6693 23.3697 18.1617 23.3697 20.002C23.3697 21.8422 21.8773 23.3347 20.037 23.3347Z" fill="white"/>
<path d="M26.5775 14.6613C26.5775 15.3237 26.0404 15.8608 25.3779 15.8608C24.7155 15.8608 24.1785 15.3237 24.1785 14.6613C24.1785 13.9988 24.7155 13.4619 25.3779 13.4619C26.0404 13.4619 26.5775 13.9988 26.5775 14.6613Z" fill="white"/>
</g>
<defs>
<clipPath id="clip0">
<rect width="20" height="20" fill="white" transform="translate(10 10)"/>
</clipPath>
</defs>
</svg>
