<svg width="40" height="40" viewBox="0 0 40 40" fill="none" xmlns="http://www.w3.org/2000/svg">
<rect x="1" y="1" width="38" height="38" rx="3" stroke="white" stroke-width="2"/>
<path d="M28.9789 15.3135C28.7628 14.5102 28.1295 13.877 27.3264 13.6607C25.8591 13.2593 19.99 13.2593 19.99 13.2593C19.99 13.2593 14.1211 13.2593 12.6539 13.6455C11.8662 13.8616 11.2174 14.5103 11.0014 15.3135C10.6152 16.7806 10.6152 19.8233 10.6152 19.8233C10.6152 19.8233 10.6152 22.8812 11.0014 24.333C11.2177 25.1362 11.8507 25.7694 12.654 25.9857C14.1366 26.3873 19.9902 26.3873 19.9902 26.3873C19.9902 26.3873 25.8591 26.3873 27.3264 26.001C28.1296 25.7848 28.7628 25.1516 28.9791 24.3485C29.3651 22.8812 29.3651 19.8387 29.3651 19.8387C29.3651 19.8387 29.3806 16.7806 28.9789 15.3135ZM18.1214 22.6342V17.0124L23.0019 19.8233L18.1214 22.6342Z" fill="white"/>
</svg>
