<svg width="64" height="64" viewBox="0 0 64 64" fill="none" xmlns="http://www.w3.org/2000/svg">
<circle cx="32" cy="32" r="32" fill="#417AC9"/>
<g clip-path="url(#clip0)">
<path d="M35.6875 27.3513H20.6875C20.1697 27.3513 19.75 27.7711 19.75 28.2888C19.75 28.8066 20.1697 29.2263 20.6875 29.2263H35.6875C36.2052 29.2263 36.625 28.8066 36.625 28.2888C36.625 27.7711 36.2052 27.3513 35.6875 27.3513Z" fill="white"/>
<path d="M32.2889 31.2263H20.6875C20.1697 31.2263 19.75 31.6461 19.75 32.1638C19.75 32.6816 20.1697 33.1013 20.6875 33.1013H32.2889C32.8066 33.1013 33.2264 32.6816 33.2264 32.1638C33.2264 31.6461 32.8066 31.2263 32.2889 31.2263Z" fill="white"/>
<path d="M40.4375 31.4138V17.2888C40.4375 15.7343 39.119 14.4763 37.5625 14.4763H24.4374C24.1997 14.4763 23.9552 14.5703 23.7719 14.7537L16.2719 22.3162C16.0996 22.4899 16 22.7314 16 22.9763V43.6638C16 45.2146 17.2617 46.4763 18.8125 46.4763C20.7904 46.4763 21.4471 46.4763 21.4443 46.4763C24.3195 46.4763 29.9771 46.4763 40.4375 46.4763C44.5771 46.4763 48 43.0679 48 38.9138C48 34.7783 44.6075 31.4138 40.4375 31.4138ZM23.5 17.6905V22.0388H19.1876L23.5 17.6905ZM18.8125 44.6013C18.2956 44.6013 17.875 44.1808 17.875 43.6638V23.9138H24.4375C24.9552 23.9138 25.375 23.4941 25.375 22.9763V16.3513H37.5625C38.0952 16.3513 38.5625 16.7894 38.5625 17.2888V31.6473C36.5726 32.1525 34.8964 33.4426 33.8902 35.1638H20.6875C20.1698 35.1638 19.75 35.5836 19.75 36.1013C19.75 36.6191 20.1698 37.0388 20.6875 37.0388H33.1143C32.9581 37.6383 32.875 38.2666 32.875 38.9138H20.6875C20.1698 38.9138 19.75 39.3336 19.75 39.8513C19.75 40.3691 20.1698 40.7888 20.6875 40.7888H33.1128C33.4917 42.2549 34.3111 43.5763 35.4804 44.6013H18.8125ZM40.4375 44.6013C37.3546 44.6013 34.75 41.9968 34.75 38.9138C34.75 35.8122 37.3014 33.2888 40.4375 33.2888C43.5736 33.2888 46.125 35.8122 46.125 38.9138C46.125 41.9968 43.5204 44.6013 40.4375 44.6013Z" fill="white"/>
<path d="M43.9809 37.3189C43.6179 36.9498 43.0242 36.9449 42.655 37.3079L39.4947 40.4165L38.2144 39.1776C37.8424 38.8175 37.2489 38.8273 36.8888 39.1994C36.5287 39.5714 36.5385 40.1649 36.9105 40.525L38.848 42.4C39.2135 42.7537 39.7945 42.7515 40.1574 42.3947L43.9699 38.6447C44.339 38.2816 44.3439 37.688 43.9809 37.3189Z" fill="white"/>
</g>
<defs>
<clipPath id="clip0">
<rect width="32" height="32" fill="white" transform="translate(16 14.4763)"/>
</clipPath>
</defs>
</svg>
