<svg width="64" height="64" viewBox="0 0 64 64" fill="none" xmlns="http://www.w3.org/2000/svg">
<circle cx="32" cy="32" r="32" fill="#52E0FF"/>
<path d="M47.0124 36.2891C47.5145 35.7287 47.8203 34.989 47.8203 34.1797C47.8203 32.4352 46.4007 31.0156 44.6562 31.0156H38.5152C39.1234 29.1699 39.3828 26.7209 39.3828 25.6712V24.6172C39.3828 22.2912 37.49 20.3984 35.1641 20.3984H34.1094C33.6256 20.3984 33.2038 20.7275 33.0863 21.1972L32.5119 23.4957C31.7068 26.7146 29.1509 30.2661 26.5058 30.9116C26.0424 29.7388 24.8984 28.9062 23.5625 28.9062H17.2344C16.6522 28.9062 16.1797 29.3788 16.1797 29.9609V48.9453C16.1797 49.5275 16.6522 50 17.2344 50H23.5625C24.8204 50 25.9088 49.2624 26.4186 48.1965L30.0425 49.4045C31.2273 49.7996 32.462 50 33.7114 50H42.5469C44.2913 50 45.7109 48.5804 45.7109 46.8359C45.7109 46.4246 45.6322 46.0309 45.4887 45.6702C46.8303 45.3038 47.8203 44.0741 47.8203 42.6172C47.8203 41.8079 47.5145 41.0682 47.0124 40.5078C47.5145 39.9474 47.8203 39.2077 47.8203 38.3984C47.8203 37.5891 47.5145 36.8495 47.0124 36.2891ZM24.6172 46.8359C24.6172 47.4174 24.144 47.8906 23.5625 47.8906H18.2891V31.0156H23.5625C24.144 31.0156 24.6172 31.4888 24.6172 32.0703V46.8359ZM42.5469 37.3438H44.6562C45.2377 37.3438 45.7109 37.817 45.7109 38.3984C45.7109 38.9799 45.2377 39.4531 44.6562 39.4531H42.5469C41.9647 39.4531 41.4922 39.9256 41.4922 40.5078C41.4922 41.09 41.9647 41.5625 42.5469 41.5625H44.6562C45.2377 41.5625 45.7109 42.0357 45.7109 42.6172C45.7109 43.1987 45.2377 43.6719 44.6562 43.6719H42.5469C41.9647 43.6719 41.4922 44.1444 41.4922 44.7266C41.4922 45.3087 41.9647 45.7812 42.5469 45.7812C43.1284 45.7812 43.6016 46.2545 43.6016 46.8359C43.6016 47.4174 43.1284 47.8906 42.5469 47.8906H33.7114C32.6891 47.8906 31.6787 47.7268 30.7091 47.4034L26.7266 46.0759V33.0252C28.381 32.7109 30.0003 31.6632 31.4621 29.9483C32.8895 28.2734 34.0468 26.053 34.558 24.0076L34.9327 22.5078H35.1641C36.327 22.5078 37.2734 23.4542 37.2734 24.6172V25.6712C37.2734 27.0873 36.8305 29.8034 36.2638 31.0156H34.1094C33.5272 31.0156 33.0547 31.4881 33.0547 32.0703C33.0547 32.6525 33.5272 33.125 34.1094 33.125H44.6562C45.2377 33.125 45.7109 33.5982 45.7109 34.1797C45.7109 34.7612 45.2377 35.2344 44.6562 35.2344H42.5469C41.9647 35.2344 41.4922 35.7069 41.4922 36.2891C41.4922 36.8712 41.9647 37.3438 42.5469 37.3438Z" fill="white"/>
<path d="M21.4531 45.7812C22.0356 45.7812 22.5078 45.3091 22.5078 44.7266C22.5078 44.1441 22.0356 43.6719 21.4531 43.6719C20.8706 43.6719 20.3984 44.1441 20.3984 44.7266C20.3984 45.3091 20.8706 45.7812 21.4531 45.7812Z" fill="white"/>
<path d="M36.2188 14C35.6363 14 35.1641 14.4722 35.1641 15.0547V17.2344C35.1641 17.8168 35.6363 18.2891 36.2188 18.2891C36.8012 18.2891 37.2734 17.8168 37.2734 17.2344V15.0547C37.2734 14.4722 36.8012 14 36.2188 14Z" fill="white"/>
<path d="M31.7441 18.651L30.2525 17.1595C29.8407 16.7476 29.1729 16.7476 28.761 17.1595C28.3491 17.5714 28.3491 18.2392 28.761 18.651L30.2525 20.1426C30.6643 20.5544 31.3322 20.5545 31.7441 20.1426C32.156 19.7307 32.156 19.0629 31.7441 18.651Z" fill="white"/>
<path d="M43.6765 17.1595C43.2647 16.7476 42.5969 16.7476 42.185 17.1595L40.6934 18.651C40.2815 19.0629 40.2815 19.7306 40.6934 20.1425C41.1053 20.5544 41.7731 20.5545 42.185 20.1426L43.6765 18.651C44.0884 18.2392 44.0884 17.5714 43.6765 17.1595Z" fill="white"/>
</svg>
