<svg width="64" height="64" viewBox="0 0 64 64" fill="none" xmlns="http://www.w3.org/2000/svg">
<circle cx="32" cy="32" r="32" fill="#FFC452"/>
<g clip-path="url(#clip0)">
<path d="M46.5944 30.4765C47.7657 29.6533 48.5414 28.2841 48.5414 26.7408C48.5414 24.2161 46.4994 22.1741 43.9747 22.1741C41.4499 22.1741 39.408 24.2161 39.408 26.7408C39.408 28.2841 40.1757 29.6533 41.355 30.4765C40.3498 30.8247 39.4317 31.3629 38.6561 32.0594C37.5877 31.1492 36.3292 30.4527 34.9521 30.0412C36.6221 29.0281 37.7459 27.184 37.7459 25.0867C37.7459 21.8892 35.1579 19.3011 31.9604 19.3011C28.763 19.3011 26.1749 21.8971 26.1749 25.0867C26.1749 27.184 27.2909 29.0281 28.9687 30.0412C27.6074 30.4527 26.3649 31.1413 25.3043 32.0356C24.5287 31.355 23.6264 30.8247 22.6371 30.4844C23.8085 29.6613 24.5841 28.292 24.5841 26.7487C24.5841 24.224 22.5421 22.182 20.0174 22.182C17.4927 22.182 15.4507 24.224 15.4507 26.7487C15.4507 28.292 16.2184 29.6613 17.3977 30.4844C14.2556 31.5687 12 34.5524 12 38.0586V38.5809C12 38.5968 12.0158 38.6126 12.0317 38.6126H21.7111C21.6557 39.0479 21.6241 39.499 21.6241 39.9501V40.4883C21.6241 42.8152 23.5077 44.6989 25.8346 44.6989H38.1021C40.429 44.6989 42.3126 42.8152 42.3126 40.4883V39.9501C42.3126 39.499 42.281 39.0479 42.2256 38.6126H51.9683C51.9842 38.6126 52 38.5968 52 38.5809V38.0586C51.9842 34.5445 49.7364 31.5607 46.5944 30.4765ZM40.6743 26.7329C40.6743 24.9125 42.1543 23.4325 43.9747 23.4325C45.795 23.4325 47.275 24.9125 47.275 26.7329C47.275 28.5295 45.8267 29.9937 44.038 30.0332C44.0142 30.0332 43.9984 30.0332 43.9747 30.0332C43.9509 30.0332 43.9351 30.0332 43.9114 30.0332C42.1148 30.0016 40.6743 28.5374 40.6743 26.7329ZM27.4254 25.0867C27.4254 22.5936 29.4515 20.5675 31.9446 20.5675C34.4377 20.5675 36.4638 22.5936 36.4638 25.0867C36.4638 27.4927 34.5722 29.4634 32.2058 29.5979C32.1187 29.5979 32.0317 29.5979 31.9446 29.5979C31.8575 29.5979 31.7705 29.5979 31.6834 29.5979C29.317 29.4634 27.4254 27.4927 27.4254 25.0867ZM16.6933 26.7329C16.6933 24.9125 18.1733 23.4325 19.9937 23.4325C21.814 23.4325 23.294 24.9125 23.294 26.7329C23.294 28.5295 21.8457 29.9937 20.057 30.0332C20.0332 30.0332 20.0174 30.0332 19.9937 30.0332C19.9699 30.0332 19.9541 30.0332 19.9304 30.0332C18.1417 30.0016 16.6933 28.5374 16.6933 26.7329ZM21.9327 37.3383H13.2822C13.6383 33.9668 16.4875 31.3233 19.9462 31.2996C19.962 31.2996 19.9778 31.2996 19.9937 31.2996C20.0095 31.2996 20.0253 31.2996 20.0412 31.2996C21.6874 31.3075 23.1911 31.9169 24.3546 32.9062C23.2149 34.1409 22.368 35.6605 21.9327 37.3383ZM41.0305 40.4883C41.0305 42.1108 39.7087 43.4325 38.0863 43.4325H25.8188C24.1963 43.4325 22.8746 42.1108 22.8746 40.4883V39.9501C22.8746 35.0352 26.8002 31.0146 31.6834 30.8722C31.7705 30.8801 31.8655 30.8801 31.9525 30.8801C32.0396 30.8801 32.1345 30.8801 32.2216 30.8722C37.1049 31.0146 41.0305 35.0352 41.0305 39.9501V40.4883V40.4883ZM41.9723 37.3383C41.537 35.6684 40.706 34.1725 39.5742 32.9379C40.7455 31.9248 42.2651 31.3154 43.9272 31.2996C43.943 31.2996 43.9588 31.2996 43.9747 31.2996C43.9905 31.2996 44.0063 31.2996 44.0222 31.2996C47.4808 31.3233 50.33 33.9668 50.6862 37.3383H41.9723Z" fill="white" stroke="white"/>
</g>
<defs>
<clipPath id="clip0">
<rect width="40" height="40" fill="white" transform="translate(12 12)"/>
</clipPath>
</defs>
</svg>
