<svg width="64" height="64" viewBox="0 0 64 64" fill="none" xmlns="http://www.w3.org/2000/svg">
<circle cx="32" cy="32" r="32" fill="#41C1C9"/>
<g clip-path="url(#clip0)">
<path d="M45.9294 41.9926C45.8063 41.4013 45.2272 41.0217 44.6356 41.1448C44.0443 41.2679 43.6647 41.8471 43.7878 42.4385C43.8588 42.7791 43.7743 43.1283 43.5562 43.3965C43.4298 43.5519 43.1481 43.8125 42.6812 43.8125H21.3195C20.8526 43.8125 20.5709 43.5519 20.4446 43.3965C20.2264 43.1283 20.142 42.7791 20.2129 42.4385C21.348 36.9864 26.157 33.0037 31.7104 32.8694C31.8066 32.8731 31.9032 32.875 32.0004 32.875C32.0978 32.875 32.1948 32.8731 32.2914 32.8694C36.2033 32.9632 39.819 34.9446 42.0087 38.2101C42.3451 38.7119 43.0244 38.8459 43.5263 38.5095C44.028 38.1731 44.162 37.4937 43.8256 36.992C42.0309 34.3154 39.4249 32.369 36.4535 31.3911C38.2642 30.0332 39.4379 27.8698 39.4379 25.4375C39.4379 21.3365 36.1014 18 32.0004 18C27.8993 18 24.5629 21.3365 24.5629 25.4375C24.5629 27.8713 25.738 30.0358 27.5506 31.3936C25.8899 31.9403 24.3315 32.7911 22.9676 33.913C20.4667 35.9701 18.7278 38.8395 18.0714 41.9926C17.8656 42.9806 18.1121 43.9954 18.7475 44.7767C19.3797 45.5541 20.3172 46 21.3195 46H42.6812C43.6835 46 44.621 45.5541 45.2532 44.7767C45.8887 43.9954 46.1351 42.9806 45.9294 41.9926ZM26.7504 25.4375C26.7504 22.5426 29.1055 20.1875 32.0004 20.1875C34.8953 20.1875 37.2504 22.5426 37.2504 25.4375C37.2504 28.2432 35.038 30.542 32.2661 30.6808C32.1777 30.6792 32.0891 30.6784 32.0004 30.6784C31.9121 30.6784 31.8238 30.6792 31.7357 30.6809C28.9633 30.5426 26.7504 28.2436 26.7504 25.4375Z" fill="white"/>
</g>
<defs>
<clipPath id="clip0">
<rect width="28" height="28" fill="white" transform="translate(18 18)"/>
</clipPath>
</defs>
</svg>
