<svg width="80" height="80" viewBox="0 0 80 80" fill="none" xmlns="http://www.w3.org/2000/svg">
<path d="M42.4687 24.8125H37.5C36.5156 24.8125 35.7031 24.0156 35.7031 23.0156V7.07813C35.7031 6.09375 36.5 5.28125 37.5 5.28125H42.4687C43.4531 5.28125 44.2656 6.07813 44.2656 7.07813V23.0313C44.2656 24.0156 43.4531 24.8125 42.4687 24.8125Z" fill="#AEECFF"/>
<path d="M49.75 12.6875V17.4219C49.75 18.4688 48.8906 19.3281 47.8438 19.3281H32.125C31.0781 19.3281 30.2188 18.4688 30.2188 17.4219V12.6875C30.2188 11.6406 31.0781 10.7812 32.125 10.7812H47.8438C48.8906 10.7812 49.75 11.625 49.75 12.6875Z" fill="#AEECFF"/>
<path d="M76.3281 72.6562H65.7031V24.9375C65.7031 24.2969 65.1719 23.7656 64.5312 23.7656C63.8906 23.7656 63.3594 24.2969 63.3594 24.9375V27.6406H16.6406V16.0938H30.2344V17.5469C30.2344 18.5312 31.0469 19.3438 32.0312 19.3438H35.7031V23.0156C35.7031 24 36.5156 24.8125 37.5 24.8125H42.5C43.4844 24.8125 44.2969 24 44.2969 23.0156V19.3438H47.9688C48.9531 19.3438 49.7656 18.5312 49.7656 17.5469V16.0938H63.3594V19.9375C63.3594 20.5781 63.8906 21.1094 64.5312 21.1094C65.1719 21.1094 65.7031 20.5781 65.7031 19.9375V14.9219C65.7031 14.2812 65.1719 13.75 64.5312 13.75H56.1719V1.17188C56.1719 0.53125 55.6406 0 55 0H34.8125C34.1719 0 33.6406 0.53125 33.6406 1.17188C33.6406 1.8125 34.1719 2.34375 34.8125 2.34375H53.8281V13.75H49.7656V12.5469C49.7656 11.5625 48.9531 10.75 47.9688 10.75H44.2969V7.07812C44.2969 6.09375 43.4844 5.28125 42.5 5.28125H37.5C36.5156 5.28125 35.7031 6.09375 35.7031 7.07812V10.75H32.0312C31.0469 10.75 30.2344 11.5625 30.2344 12.5469V13.75H26.1719V2.34375H29.9844C30.625 2.34375 31.1562 1.8125 31.1562 1.17188C31.1562 0.53125 30.625 0 29.9844 0H25C24.3594 0 23.8281 0.53125 23.8281 1.17188V13.75H15.4688C14.8281 13.75 14.2969 14.2812 14.2969 14.9219V72.6562H3.67188C1.64062 72.6562 0 74.2969 0 76.3281C0 78.3594 1.64062 80 3.67188 80H14.9219C15.5625 80 16.0938 79.4688 16.0938 78.8281C16.0938 78.1875 15.5625 77.6562 14.9219 77.6562H3.67188C2.9375 77.6562 2.34375 77.0625 2.34375 76.3281C2.34375 75.5938 2.9375 75 3.67188 75H76.3281C77.0625 75 77.6562 75.5938 77.6562 76.3281C77.6562 77.0625 77.0625 77.6562 76.3281 77.6562H20.0312C19.3906 77.6562 18.8594 78.1875 18.8594 78.8281C18.8594 79.4688 19.3906 80 20.0312 80H76.3281C78.3594 80 80 78.3594 80 76.3281C80 74.2969 78.3594 72.6562 76.3281 72.6562ZM32.5781 13.0938H36.25C37.2344 13.0938 38.0469 12.2813 38.0469 11.2969V7.625H41.9531V11.2969C41.9531 12.2813 42.7656 13.0938 43.75 13.0938H47.4219V17H43.75C42.7656 17 41.9531 17.8125 41.9531 18.7969V22.4688H38.0469V18.7969C38.0469 17.8125 37.2344 17 36.25 17H32.5781V13.0938ZM63.3438 29.9844V32.3281H16.6406V29.9844H63.3438ZM26.9531 72.6562V65.625H29.9219V72.6562H26.9531ZM47.7344 65.625V72.6562H32.2656V65.625H47.7344ZM50.0781 72.6562V65.625H53.0469V72.6562H50.0781ZM55.3906 72.6562V64.4531C55.3906 63.8125 54.8594 63.2812 54.2188 63.2812H25.7812C25.1406 63.2812 24.6094 63.8125 24.6094 64.4531V72.6562H16.6406V34.6719H63.3594V72.6562H55.3906Z" fill="#417AC9"/>
<path d="M29.6875 36.6406H21.25C20.6094 36.6406 20.0781 37.1719 20.0781 37.8125V45.625C20.0781 46.2656 20.6094 46.7969 21.25 46.7969H29.6875C30.3281 46.7969 30.8594 46.2656 30.8594 45.625V37.8125C30.8594 37.1719 30.3281 36.6406 29.6875 36.6406ZM28.5156 44.4531H22.4219V38.9844H28.5156V44.4531Z" fill="#417AC9"/>
<path d="M58.75 36.6406H50.3125C49.6719 36.6406 49.1406 37.1719 49.1406 37.8125V45.625C49.1406 46.2656 49.6719 46.7969 50.3125 46.7969H58.75C59.3906 46.7969 59.9219 46.2656 59.9219 45.625V37.8125C59.9219 37.1719 59.3906 36.6406 58.75 36.6406ZM57.5781 44.4531H51.4844V38.9844H57.5781V44.4531Z" fill="#417AC9"/>
<path d="M44.2188 36.6406H35.7812C35.1406 36.6406 34.6094 37.1719 34.6094 37.8125V45.625C34.6094 46.2656 35.1406 46.7969 35.7812 46.7969H44.2188C44.8594 46.7969 45.3906 46.2656 45.3906 45.625V37.8125C45.3906 37.1719 44.8594 36.6406 44.2188 36.6406ZM43.0469 44.4531H36.9531V38.9844H43.0469V44.4531Z" fill="#417AC9"/>
<path d="M29.6875 50.2344H21.25C20.6094 50.2344 20.0781 50.7656 20.0781 51.4062V59.2188C20.0781 59.8594 20.6094 60.3906 21.25 60.3906H29.6875C30.3281 60.3906 30.8594 59.8594 30.8594 59.2188V51.4062C30.8594 50.7656 30.3281 50.2344 29.6875 50.2344ZM28.5156 58.0469H22.4219V52.5781H28.5156V58.0469Z" fill="#417AC9"/>
<path d="M58.75 50.2344H50.3125C49.6719 50.2344 49.1406 50.7656 49.1406 51.4062V59.2188C49.1406 59.8594 49.6719 60.3906 50.3125 60.3906H58.75C59.3906 60.3906 59.9219 59.8594 59.9219 59.2188V51.4062C59.9219 50.7656 59.3906 50.2344 58.75 50.2344ZM57.5781 58.0469H51.4844V52.5781H57.5781V58.0469Z" fill="#417AC9"/>
<path d="M44.2188 50.2344H35.7812C35.1406 50.2344 34.6094 50.7656 34.6094 51.4062V59.2188C34.6094 59.8594 35.1406 60.3906 35.7812 60.3906H44.2188C44.8594 60.3906 45.3906 59.8594 45.3906 59.2188V51.4062C45.3906 50.7656 44.8594 50.2344 44.2188 50.2344ZM43.0469 58.0469H36.9531V52.5781H43.0469V58.0469Z" fill="#417AC9"/>
</svg>
