<svg width="80" height="80" viewBox="0 0 80 80" fill="none" xmlns="http://www.w3.org/2000/svg">
<g clip-path="url(#clip0)">
<path d="M76.7031 64.3751L75.8594 47.4844C75.7656 45.5782 74.3281 44.0157 72.4219 43.7813C65.8438 42.9532 60.6094 46.2969 57.2188 49.5V35.5626C57.2188 31.9219 54.2656 28.9688 50.625 28.9688H25.9375C25.3906 26.2657 24.5156 21.5001 25.1406 19.3594C26.8125 18.9688 28.2344 17.9219 29.1719 17.0782C29.6719 16.6251 30.4219 16.5157 31.0312 16.8282C31.9531 17.1407 34.0156 19.0469 36.7188 17.6407C38 16.9688 38.875 15.7657 39.0781 14.3282C39.75 9.7813 39.0469 6.23443 37.0312 4.0938C33.0938 -0.109322 28.75 -0.328072 25.7969 0.218803C20.5625 1.18755 16.2656 5.1563 15.2969 7.5313C14.5781 9.31255 14.8437 11.5469 15.1875 13.1094C15.2656 13.4688 15.2188 13.8438 15.0625 14.1719C12.75 18.8282 11.4062 23.8751 10.7188 28.9532H9.875C6.23438 28.9532 3.28125 31.9063 3.28125 35.5469V73.4063C3.28125 77.0469 6.23438 80.0001 9.875 80.0001H50.6406C53.875 80.0001 56.5625 77.6719 57.125 74.5938C61.6562 74.2501 65.7812 73.8282 69.0469 73.4376C73.5625 72.9063 76.9375 68.9219 76.7031 64.3751ZM19.4219 69.5626C18.5 69.1563 17.7969 68.3907 17.4844 67.4376C13.9531 56.4688 11.8125 43.0001 12.9375 31.4532H14.2656C14.25 38.3282 14.6094 55.6563 18.2344 61.6094C18.8438 62.6094 20.1094 63.3751 21.4062 63.2813C22.1406 63.2188 23.5 62.8282 24.3438 60.8282C25.2188 58.7188 26.3281 56.5001 24.2188 53.7344C21.0781 49.6407 21.6875 36.6251 22.125 31.4688H23.9062C25.3906 38.3594 27.5312 46.3907 27.5938 51.4688C27.625 53.5469 30.0781 54.625 31.625 53.25C34 51.125 37.9688 48.75 43.3438 49.4376C45.9844 49.7813 48.2812 51.1876 50.1562 53.6251C51.25 55.0313 53.0625 55.5625 54.7188 55.0469V59.8438H34.5625C33.9844 58.0001 32.25 56.6407 30.2344 56.6407C26.6562 56.6407 24.5 60.6094 26.4219 63.6094C24.5156 66.5938 26.6562 70.5782 30.2344 70.5782C32.25 70.5782 33.9844 69.2188 34.5625 67.3751H54.7188V72.2813C42.5625 73.0469 27.5156 73.0938 19.4219 69.5626ZM17.3125 15.2813C17.7344 14.4376 17.8438 13.4688 17.6406 12.5469C17.2656 10.8594 17.25 9.35943 17.625 8.4688C18.75 5.73443 28.0938 -1.7812 35.2188 5.79693C37.0781 7.7813 37 11.3282 36.6094 13.9532C36.5156 14.5782 36.1406 15.1094 35.5781 15.4063C34.2656 16.0782 33.3125 15.0313 32.1719 14.5782C30.6406 13.7969 28.7656 14.0626 27.5 15.2188C24.8438 17.6407 23.8125 16.4688 23.1719 17.6407C21.9844 19.7813 22.3594 23.7188 23.4062 28.9688C20.2656 28.9688 16.25 28.9688 13.25 28.9688C13.9531 23.8751 15.3125 19.3126 17.3125 15.2813ZM68.75 70.9532C65.8438 71.2969 61.8125 71.7344 57.2344 72.0782C57.2344 68.8282 57.2344 57.9688 57.2344 53.0782C62.8906 46.6094 68.4219 45.7813 72.125 46.2501C72.8125 46.3438 73.3438 46.9063 73.375 47.6094L74.2188 64.5001C74.375 67.7344 71.9688 70.5782 68.75 70.9532Z" fill="#417AC9"/>
<path d="M57.2344 53.0781C57.25 53.0625 57.2656 53.0469 57.2812 53.0156L57.3125 49.3906C57.2812 49.4219 57.25 49.4531 57.2188 49.4688V35.5312C57.2188 31.8906 54.2656 28.9375 50.625 28.9375H25.9375C25.9375 28.9062 25.9219 28.875 25.9219 28.8438L23.375 28.8594C23.375 28.8906 23.3906 28.9219 23.3906 28.9375C20.25 28.9375 16.2344 28.9375 13.2344 28.9375V28.9219L10.7188 28.9375H9.875C6.23438 28.9375 3.28125 31.8906 3.28125 35.5312V73.3906C3.28125 77.0312 6.23438 79.9844 9.875 79.9844H50.6406C53.7656 79.9844 56.375 77.8125 57.0625 74.9062L57.2344 57.9062C57.2344 56.0625 57.2344 54.3594 57.2344 53.0781ZM54.7344 59.8438H34.5781C34 58 32.2656 56.6406 30.25 56.6406C26.6719 56.6406 24.5156 60.6094 26.4375 63.6094C24.5312 66.5938 26.6719 70.5781 30.25 70.5781C32.2656 70.5781 34 69.2188 34.5781 67.375H54.7344V72.2812C42.5625 73.0781 27.5156 73.1094 19.4219 69.5938C18.5 69.1875 17.7969 68.4219 17.4844 67.4687C13.9531 56.5 11.8125 43.0312 12.9375 31.4844H14.2656C14.25 38.3594 14.6094 55.6875 18.2344 61.6406C18.8438 62.6406 20.1094 63.4062 21.4062 63.3125C22.1406 63.25 23.5 62.8594 24.3438 60.8594C25.2188 58.75 26.3281 56.5312 24.2188 53.7656C21.0781 49.6719 21.6875 36.6562 22.125 31.5H23.9062C25.3906 38.3906 27.5312 46.4219 27.5938 51.5C27.625 53.5781 30.0781 54.6562 31.625 53.2812C34 51.1562 37.9688 48.7812 43.3438 49.4688C45.9844 49.8125 48.2812 51.2187 50.1562 53.6562C51.25 55.0625 53.0625 55.5937 54.7188 55.0781V59.8438H54.7344Z" fill="#417AC9"/>
<rect x="4.5" y="30.1666" width="51.5" height="48.3333" rx="4.5" stroke="#AEECFF" stroke-width="3"/>
</g>
<defs>
<clipPath id="clip0">
<rect width="80" height="80" fill="white"/>
</clipPath>
</defs>
</svg>
